<svg viewBox="0 0 792 656.856" class="hide">
<g id="mediatrends-logo">
	<g>
		<path fill="#FFFFFF" d="M132.299,609.209c0,1.953-1.128,2.93-3.383,2.93c-1.099,0-1.883-0.137-2.354-0.41
			c-0.961-0.566-1.441-1.406-1.441-2.52c0-0.938,0.42-1.699,1.26-2.285c0.391-0.273,0.586-0.449,0.586-0.527
			c0-0.078-0.234-0.283-0.703-0.615c-0.762-0.41-1.143-1.162-1.143-2.256c0-1.25,0.479-2.09,1.436-2.519
			c0.273-0.098,0.41-0.205,0.41-0.322s-0.234-0.312-0.703-0.586c-0.762-0.43-1.143-1.191-1.143-2.285
			c0-1.172,0.498-2.012,1.494-2.519c0.234-0.117,0.352-0.234,0.352-0.352c0-0.098-0.215-0.283-0.645-0.557
			c-0.801-0.488-1.201-1.27-1.201-2.344c0-1.152,0.517-2.012,1.553-2.578c0.234-0.117,0.352-0.215,0.352-0.293
			c0-0.059-0.098-0.156-0.293-0.293c-1.074-0.547-1.611-1.426-1.611-2.637c0-1.152,0.458-1.953,1.377-2.402
			c0.312-0.156,0.469-0.303,0.469-0.44c-0.02-0.098-0.059-0.176-0.117-0.234l-0.762-0.469c-0.645-0.391-0.967-1.113-0.967-2.168
			c0-1.914,1.127-2.871,3.383-2.871c1.118,0,1.912,0.137,2.383,0.41c0.941,0.547,1.412,1.367,1.412,2.461
			c0,1.152-0.517,1.992-1.548,2.52c-0.199,0.117-0.297,0.234-0.297,0.352c0,0.098,0.228,0.283,0.685,0.557
			c0.774,0.469,1.161,1.27,1.161,2.402c0,0.996-0.536,1.836-1.607,2.52c-0.14,0.039-0.219,0.117-0.238,0.234
			c0,0.195,0.139,0.352,0.417,0.469c0.953,0.449,1.429,1.23,1.429,2.344c0,1.191-0.387,1.992-1.161,2.402
			c-0.457,0.254-0.685,0.459-0.685,0.615c0.02,0.098,0.06,0.176,0.119,0.234l0.565,0.293c0.774,0.43,1.161,1.211,1.161,2.344
			c0,0.957-0.348,1.699-1.042,2.227c-0.536,0.293-0.804,0.488-0.804,0.586s0.208,0.303,0.626,0.615c0.813,0.43,1.22,1.191,1.22,2.285
			c0,1.074-0.387,1.846-1.161,2.314c-0.457,0.293-0.685,0.479-0.685,0.557c0,0.117,0.02,0.195,0.06,0.234l0.923,0.615
			C132.011,607.617,132.299,608.271,132.299,609.209z M152.368,614.981c0,0.84-0.274,1.528-0.82,2.065
			c-0.547,0.537-1.26,0.806-2.139,0.806h-15.41c-0.898,0-1.645-0.269-2.241-0.806c-0.596-0.537-0.893-1.206-0.893-2.007
			c0-0.859,0.322-1.562,0.967-2.109c0.527-0.43,1.572-0.644,3.135-0.644h14.326c0.898,0,1.636,0.254,2.212,0.762
			C152.079,613.555,152.368,614.199,152.368,614.981z"/>
		<path fill="#FFFFFF" d="M173.315,614.922c0,0.859-0.298,1.562-0.893,2.109c-0.596,0.547-1.362,0.82-2.3,0.82H157.7
			c-0.801,0-1.479-0.273-2.036-0.82c-0.557-0.547-0.835-1.211-0.835-1.992c0-0.703,0.249-1.338,0.747-1.904
			c0.498-0.566,1.05-0.85,1.655-0.85h3.896c0.41,0,0.645-0.039,0.703-0.117c0.059-0.078,0.088-0.166,0.088-0.264
			c0-0.137-0.194-0.352-0.581-0.644c-0.57-0.469-0.855-1.133-0.855-1.992c0-1.055,0.534-1.895,1.602-2.52
			c0.202-0.117,0.302-0.215,0.302-0.293c-0.02-0.117-0.061-0.176-0.121-0.176l-0.816-0.557c-0.645-0.352-0.967-1.065-0.967-2.139
			c0-1.133,0.494-1.973,1.483-2.519h0.121c0.161-0.117,0.242-0.225,0.242-0.322c0-0.099-0.272-0.313-0.817-0.646
			c-0.686-0.449-1.029-1.213-1.029-2.289c0-1.095,0.454-1.897,1.361-2.406c0.323-0.137,0.484-0.254,0.484-0.352
			c0-0.078-0.04-0.156-0.117-0.235l-0.732-0.499c-0.664-0.449-0.996-1.174-0.996-2.171c0-1.096,0.371-1.849,1.113-2.26
			c0.488-0.274,0.732-0.479,0.732-0.616c0-0.059-0.02-0.117-0.059-0.177l-0.732-0.41c-0.703-0.431-1.055-1.174-1.055-2.231
			c0-0.724,0.215-1.33,0.645-1.819l0.674-0.705c0.039-0.019,0.059-0.077,0.059-0.176c0-0.156-0.107-0.234-0.322-0.234h-3.955
			c-0.781,0-1.446-0.276-1.992-0.83c-0.547-0.555-0.82-1.22-0.82-1.997c0-0.797,0.278-1.472,0.835-2.025
			c0.557-0.554,1.255-0.831,2.095-0.831h12.07c2.324,0,3.486,0.933,3.486,2.798c0,1.924-1.104,2.886-3.311,2.886h-3.311
			c-0.312,0-0.469,0.078-0.469,0.234c0,0.099,0.239,0.352,0.718,0.763c0.479,0.411,0.718,1.056,0.718,1.935
			c0,0.979-0.557,1.838-1.67,2.581c-0.117,0.117-0.176,0.215-0.176,0.293c0,0.098,0.117,0.195,0.352,0.294
			c0.996,0.43,1.494,1.251,1.494,2.463c0,1.095-0.362,1.857-1.084,2.287l-0.586,0.382c-0.078,0.059-0.117,0.137-0.117,0.234
			c0,0.098,0.253,0.312,0.762,0.646c0.684,0.449,1.025,1.192,1.025,2.228c0,1.075-0.459,1.897-1.377,2.463
			c-0.293,0.157-0.45,0.275-0.469,0.353c0,0.117,0.039,0.225,0.117,0.322l0.586,0.294c0.762,0.371,1.143,1.134,1.143,2.287
			c0,1.114-0.538,1.994-1.611,2.639c-0.117,0.079-0.176,0.157-0.176,0.235c0,0.137,0.117,0.254,0.352,0.352
			c0.957,0.509,1.436,1.33,1.436,2.464c0,0.86-0.23,1.49-0.689,1.892c-0.459,0.401-0.688,0.631-0.688,0.689
			c0,0.293,0.224,0.44,0.674,0.44h3.604C172.377,612.285,173.315,613.164,173.315,614.922z"/>
		<path fill="#FFFFFF" d="M199.653,597.988c0,0.84-0.293,1.538-0.879,2.095c-0.586,0.557-1.329,0.835-2.227,0.835h-12.48
			c-0.078,0.098-0.117,0.184-0.117,0.263c0,0.019,0.02,0.059,0.061,0.117l0.733,0.7c0.427,0.409,0.641,0.993,0.641,1.752
			c0,1.168-0.523,2.005-1.571,2.511c-0.241,0.176-0.362,0.292-0.362,0.351c0,0.078,0.059,0.176,0.176,0.292l0.557,0.38
			c0.722,0.389,1.084,1.119,1.084,2.19c0,1.148-0.469,1.966-1.406,2.453c-0.312,0.175-0.469,0.321-0.469,0.438
			c0,0.117,0.117,0.233,0.352,0.351c1.015,0.447,1.523,1.265,1.523,2.452c0,1.908-1.084,2.861-3.252,2.861
			c-1.191,0-2.012-0.117-2.461-0.352c-0.957-0.527-1.436-1.348-1.436-2.461c0-1.035,0.42-1.816,1.26-2.344
			c0.429-0.273,0.645-0.449,0.645-0.527c0-0.117-0.274-0.342-0.82-0.674c-0.723-0.43-1.084-1.172-1.084-2.227
			c0-1.035,0.4-1.797,1.201-2.285l0.586-0.352c0.078-0.078,0.117-0.137,0.117-0.176c0-0.078-0.04-0.156-0.117-0.234l-0.645-0.352
			c-0.762-0.547-1.143-1.328-1.143-2.344c0-1.055,0.4-1.816,1.201-2.285c0.469-0.293,0.703-0.479,0.703-0.557
			c-0.02-0.098-0.061-0.156-0.121-0.176l-0.605-0.41c-0.786-0.527-1.179-1.289-1.179-2.285c0-1.191,0.494-2.031,1.481-2.519
			c0.282-0.137,0.423-0.254,0.423-0.352c0-0.137-0.121-0.254-0.362-0.352c-1.028-0.469-1.542-1.338-1.542-2.607
			c0-1.191,0.534-2.031,1.602-2.52c0.202-0.059,0.302-0.156,0.302-0.293c0-0.059-0.303-0.293-0.907-0.703
			c-0.665-0.449-0.998-1.172-0.998-2.168c0-0.801,0.344-1.523,1.034-2.168c0.512-0.469,1.477-0.703,2.895-0.703
			c2.225,0,3.337,0.957,3.337,2.871c0,1.035-0.567,1.914-1.699,2.637c-0.098,0.059-0.157,0.137-0.176,0.234
			c0,0.098,0.061,0.176,0.181,0.234c1.129,0.605,1.694,1.494,1.694,2.666c0,0.82-0.234,1.435-0.703,1.846l-0.733,0.674v0.117
			c0,0.098,0.034,0.171,0.103,0.22c0.068,0.049,0.268,0.073,0.601,0.073h11.514C198.491,595.176,199.653,596.113,199.653,597.988z
			 M202.582,580.703c0,1.934-1.036,2.9-3.105,2.9h-12.48c-0.879,0-1.607-0.268-2.183-0.806c-0.576-0.537-0.864-1.216-0.864-2.036
			c0-1.953,1.152-2.93,3.457-2.93h12.305C201.625,577.832,202.582,578.789,202.582,580.703z"/>
		<path fill="#FFFFFF" d="M228.774,597.812c0,0.859-0.293,1.553-0.879,2.08c-0.586,0.527-1.338,0.791-2.256,0.791h-11.338
			c-0.645,0-1.016,0.049-1.113,0.146c-0.059,0.02-0.088,0.078-0.088,0.176c0,0.098,0.136,0.234,0.41,0.41
			c0.645,0.566,0.967,1.309,0.967,2.227c0,1.074-0.421,1.846-1.26,2.314c-0.391,0.234-0.586,0.4-0.586,0.498
			c0,0.078,0.195,0.234,0.586,0.469c0.839,0.508,1.26,1.289,1.26,2.344c0,1.914-1.103,2.871-3.308,2.871
			c-2.541,0-3.811-0.938-3.811-2.812c0-1.113,0.554-1.973,1.663-2.578c0.161-0.156,0.242-0.254,0.242-0.293
			c0-0.117-0.242-0.303-0.726-0.557c-0.786-0.391-1.179-1.162-1.179-2.314c0-1.269,0.494-2.09,1.482-2.461
			c0.282-0.117,0.423-0.244,0.423-0.381c-0.02-0.098-0.061-0.156-0.121-0.176l-0.816-0.469c-0.645-0.391-0.967-1.152-0.967-2.285
			c0-1.055,0.414-1.836,1.241-2.344l0.484-0.234c0.081-0.039,0.121-0.098,0.121-0.176c0-0.078-0.04-0.156-0.117-0.234l-0.791-0.557
			c-0.626-0.449-0.938-1.172-0.938-2.168c0-1.016,0.371-1.748,1.113-2.197l0.615-0.381c0.078-0.039,0.117-0.098,0.117-0.176
			c0-0.156-0.02-0.234-0.059-0.234l-0.908-0.586c-0.586-0.41-0.879-1.094-0.879-2.051c0-1.953,1.191-2.93,3.574-2.93
			c2.363,0,3.545,0.957,3.545,2.871c0,0.977-0.293,1.68-0.879,2.109l-0.85,0.586c-0.078,0.039-0.117,0.098-0.117,0.176
			c0,0.078,0.039,0.156,0.117,0.234l0.703,0.439c0.684,0.391,1.025,1.123,1.025,2.197c0,1.016-0.362,1.758-1.084,2.227
			c-0.195,0.137-0.293,0.264-0.293,0.381c0,0.195,0.4,0.293,1.201,0.293h11.514C227.788,595.059,228.774,595.977,228.774,597.812z
			 M234.457,580.63c0,0.7-0.283,1.356-0.85,1.968c-0.567,0.612-1.162,0.918-1.787,0.918h-15.645c-0.898,0-1.636-0.267-2.212-0.802
			c-0.576-0.534-0.864-1.209-0.864-2.025c0-0.777,0.273-1.447,0.82-2.011c0.546-0.563,1.191-0.846,1.934-0.846h15.615
			c0.839,0,1.548,0.268,2.124,0.802C234.169,579.168,234.457,579.833,234.457,580.63z M234.516,614.981
			c0,0.723-0.278,1.382-0.835,1.977c-0.557,0.596-1.177,0.894-1.86,0.894h-15.41c-2.208,0-3.311-0.938-3.311-2.812
			c0-0.723,0.264-1.362,0.791-1.919c0.527-0.557,1.123-0.835,1.787-0.835l16.875,0.117c0.527,0.078,0.986,0.381,1.377,0.908
			C234.321,613.838,234.516,614.394,234.516,614.981z"/>
		<path fill="#FFFFFF" d="M246.088,592.305c0,1.016-0.51,1.807-1.53,2.373c-0.412,0.254-1.088,0.381-2.03,0.381h-0.5
			c-0.882,0-1.623-0.278-2.221-0.835c-0.599-0.557-0.897-1.245-0.897-2.065c0-1.016,0.361-1.748,1.084-2.197l0.645-0.439
			c0.078-0.078,0.117-0.137,0.117-0.176c-0.019-0.098-0.058-0.176-0.117-0.234l-0.762-0.469c-0.645-0.41-0.967-1.133-0.967-2.168
			c0-1.914,1.147-2.871,3.442-2.871c2.49,0,3.736,0.977,3.736,2.93c0,1.016-0.387,1.758-1.161,2.227l-0.624,0.352
			c-0.08,0.078-0.119,0.156-0.119,0.234c0.02,0.059,0.039,0.117,0.06,0.176l0.863,0.557
			C245.761,590.488,246.088,591.231,246.088,592.305z M246.088,609.268c0,1.113-0.494,1.934-1.483,2.461
			c-0.435,0.234-1.117,0.352-2.046,0.352c-1.068,0-1.859-0.156-2.373-0.469c-0.851-0.527-1.275-1.25-1.275-2.168
			c0-1.992,1.137-2.988,3.411-2.988c1.068,0,1.849,0.137,2.343,0.41C245.614,607.393,246.088,608.193,246.088,609.268z
			 M263.139,597.812c0,0.84-0.283,1.538-0.85,2.095c-0.567,0.557-1.279,0.835-2.139,0.835h-11.836c-2.48,0-3.721-0.957-3.721-2.871
			c0-1.055,0.488-1.875,1.465-2.461c0.391-0.234,1.025-0.352,1.904-0.352h12.187c0.859,0,1.572,0.264,2.139,0.791
			C262.856,596.377,263.139,597.031,263.139,597.812z M263.139,614.966c0,1.924-1.055,2.886-3.164,2.886h-12.422
			c-0.84,0-1.543-0.275-2.109-0.824c-0.567-0.55-0.85-1.218-0.85-2.003c0-1.099,0.458-1.914,1.377-2.444
			c0.449-0.274,1.26-0.412,2.432-0.412h11.631c0.898,0,1.641,0.261,2.227,0.78C262.846,613.469,263.139,614.142,263.139,614.966z
			 M263.139,580.644c0,1.973-1.358,2.959-4.072,2.959c-0.43,0-0.752-0.02-0.967-0.059h-10.195c-2.149,0-3.223-0.947-3.223-2.842
			c0-1.133,0.479-1.953,1.436-2.461c0.527-0.273,1.367-0.41,2.52-0.41h10.313c1.445,0,2.402,0.137,2.871,0.41
			C262.7,578.769,263.139,579.57,263.139,580.644z M268.94,586.416c0,1.133-0.5,1.973-1.5,2.519
			c-0.452,0.234-1.157,0.352-2.118,0.352c-2.373,0-3.56-0.957-3.56-2.871c0-1.875,1.147-2.812,3.442-2.812
			C267.694,583.604,268.94,584.541,268.94,586.416z M268.94,609.268c0,0.84-0.326,1.582-0.978,2.227
			c-0.436,0.43-1.405,0.645-2.907,0.645c-2.195,0-3.292-0.938-3.292-2.812c0-1.094,0.42-1.875,1.26-2.344
			c0.41-0.215,0.615-0.371,0.615-0.469c0-0.156-0.078-0.254-0.234-0.293c-1.094-0.606-1.641-1.445-1.641-2.52
			c0-1.934,1.256-2.9,3.767-2.9c2.273,0,3.411,0.947,3.411,2.842c0,1.035-0.358,1.768-1.075,2.197l-0.676,0.44
			c-0.103,0.078-0.153,0.137-0.153,0.176c0,0.176,0.174,0.332,0.523,0.469C268.479,607.354,268.94,608.135,268.94,609.268z"/>
		<path fill="#FFFFFF" d="M302.631,580.63c0,1.924-1.124,2.886-3.369,2.886h-8.086c-0.919,0-1.377,0.098-1.377,0.293
			c0,0.04,0.02,0.079,0.06,0.117l0.718,0.704c0.419,0.41,0.629,1.036,0.629,1.877c0,1.192-0.487,2.013-1.459,2.463
			c-0.258,0.117-0.387,0.234-0.387,0.352s0.02,0.195,0.06,0.234l0.744,0.499c0.694,0.449,1.042,1.173,1.042,2.17
			c0,1.192-0.486,2.003-1.458,2.434c-0.297,0.176-0.446,0.322-0.446,0.44c0,0.117,0.149,0.234,0.446,0.352
			c0.972,0.431,1.458,1.271,1.458,2.522c0,1.095-0.526,1.936-1.577,2.522c-0.218,0.117-0.327,0.234-0.327,0.352
			c0,0.098,0.128,0.205,0.387,0.322c1.012,0.45,1.518,1.31,1.518,2.581c0,1.192-0.427,1.994-1.279,2.404
			c-0.417,0.176-0.625,0.312-0.625,0.41c0,0.137,0.163,0.273,0.491,0.41c0.942,0.47,1.414,1.291,1.414,2.463
			c0,1.037-0.355,1.779-1.067,2.229c-0.519,0.333-0.779,0.558-0.779,0.675c0,0.098,0.144,0.216,0.433,0.352
			c0.942,0.45,1.413,1.271,1.413,2.464c0,1.915-1.167,2.873-3.501,2.873c-1.04,0-1.805-0.137-2.295-0.41
			c-0.922-0.548-1.382-1.349-1.382-2.404c0-1.095,0.373-1.857,1.118-2.287l0.635-0.353c0.121-0.077,0.181-0.136,0.181-0.176
			c0-0.156-0.061-0.264-0.181-0.322l-0.695-0.411c-0.705-0.43-1.058-1.173-1.058-2.229c0-1.074,0.413-1.856,1.239-2.345
			c0.463-0.255,0.695-0.411,0.695-0.47c-0.02-0.098-0.061-0.176-0.121-0.234l-0.876-0.558c-0.625-0.371-0.937-1.065-0.937-2.081
			c0-1.056,0.353-1.799,1.058-2.229l0.695-0.41c0.101-0.059,0.161-0.146,0.181-0.264c0-0.078-0.303-0.312-0.908-0.703
			c-0.684-0.45-1.025-1.192-1.025-2.229c0-1.173,0.537-2.014,1.611-2.522c0.215-0.136,0.322-0.234,0.322-0.293
			c-0.02-0.117-0.078-0.195-0.176-0.234l-0.557-0.323c-0.801-0.43-1.201-1.202-1.201-2.315c0-1.075,0.381-1.838,1.143-2.287
			c0.488-0.293,0.732-0.499,0.732-0.616s-0.04-0.176-0.117-0.176l-0.615-0.41c-0.762-0.548-1.143-1.29-1.143-2.229
			c0-0.938,0.361-1.701,1.084-2.288c0.234-0.136,0.352-0.273,0.352-0.41c0-0.195-0.4-0.293-1.201-0.293h-8.701
			c-0.86,0-1.582-0.267-2.168-0.802c-0.586-0.534-0.879-1.209-0.879-2.025c0-0.835,0.297-1.52,0.893-2.055
			c0.596-0.534,1.362-0.802,2.3-0.802h23.555c0.82,0,1.445,0.117,1.875,0.35C302.133,578.746,302.631,579.562,302.631,580.63z"/>
		<path fill="#FFFFFF" d="M313.881,592.031c0,1.176-0.482,2.018-1.447,2.528c-0.453,0.255-1.241,0.382-2.363,0.382
			c-2.265,0-3.397-0.95-3.397-2.852c0-1.176,0.524-2.018,1.572-2.528c0.202-0.098,0.303-0.215,0.303-0.353
			c-0.02-0.117-0.098-0.215-0.234-0.294c-1.094-0.705-1.641-1.587-1.641-2.646c0-1.077,0.4-1.842,1.201-2.293
			c0.449-0.255,0.674-0.441,0.674-0.559c0-0.078-0.146-0.195-0.439-0.353c-0.957-0.51-1.436-1.333-1.436-2.47
			c0-1.959,1.084-2.939,3.252-2.939c1.172,0,1.973,0.117,2.402,0.352c0.996,0.569,1.494,1.411,1.494,2.528
			c0,1.156-0.421,1.94-1.26,2.352c-0.41,0.275-0.615,0.451-0.615,0.529c0.039,0.118,0.088,0.186,0.146,0.206l0.527,0.353
			c0.839,0.451,1.26,1.234,1.26,2.352c0,1.156-0.517,1.999-1.553,2.528c-0.195,0.098-0.293,0.196-0.293,0.294
			c0,0.137,0.156,0.294,0.469,0.471C313.422,590.13,313.881,590.934,313.881,592.031z M313.999,609.268
			c0,1.094-0.498,1.934-1.494,2.52c-0.488,0.273-1.25,0.41-2.285,0.41c-2.285,0-3.428-0.938-3.428-2.812
			c0-1.133,0.488-1.973,1.465-2.52c0.41-0.234,1.143-0.352,2.197-0.352C312.816,606.514,313.999,607.432,313.999,609.268z
			 M336.85,609.15c0,1.953-1.26,2.93-3.779,2.93c-2.188,0-3.281-0.952-3.281-2.857c0-1.146,0.439-1.943,1.318-2.39
			c0.312-0.155,0.469-0.291,0.469-0.408c0-0.078-0.04-0.155-0.117-0.233l-0.527-0.32c-0.801-0.428-1.201-1.225-1.201-2.391
			c0-0.874,0.41-1.651,1.23-2.331c0.098-0.078,0.146-0.175,0.146-0.292c-0.02-0.019-0.034-0.043-0.044-0.072
			c-0.01-0.029-0.015-0.063-0.015-0.102h-0.117h-0.674h-14.883c-0.781,0-1.455-0.293-2.021-0.879c-0.567-0.586-0.85-1.269-0.85-2.051
			c0-0.762,0.268-1.431,0.806-2.007c0.537-0.576,1.147-0.864,1.831-0.864h15.674c0.156,0,0.234-0.088,0.234-0.264
			c0-0.137-0.132-0.273-0.397-0.41c-0.692-0.527-1.038-1.269-1.038-2.227c0-1.113,0.413-1.875,1.239-2.285
			c0.443-0.215,0.665-0.41,0.665-0.586c0-0.059-0.04-0.117-0.121-0.176l-0.816-0.557c-0.645-0.43-0.967-1.143-0.967-2.139
			c0-1.133,0.433-1.914,1.3-2.344c0.403-0.215,0.604-0.381,0.604-0.498c-0.02-0.098-0.059-0.156-0.117-0.176l-0.527-0.352
			c-0.84-0.566-1.26-1.348-1.26-2.344c0-1.914,1.152-2.871,3.457-2.871c1.152,0,1.953,0.156,2.402,0.469
			c0.839,0.586,1.26,1.367,1.26,2.344c0,1.152-0.459,1.992-1.377,2.519c-0.274,0.098-0.41,0.215-0.41,0.352
			c0,0.156,0.121,0.303,0.362,0.44c1.028,0.547,1.542,1.387,1.542,2.52c0,1.074-0.434,1.855-1.3,2.344
			c-0.403,0.215-0.604,0.371-0.604,0.469c0,0.156,0.101,0.254,0.302,0.293c1.068,0.527,1.602,1.387,1.602,2.578
			c0,1.113-0.474,1.934-1.422,2.461c-0.282,0.176-0.423,0.322-0.423,0.439c0,0.098,0.078,0.195,0.234,0.293
			c1.074,0.664,1.611,1.523,1.611,2.578c0,0.918-0.4,1.68-1.201,2.285l-0.469,0.352c-0.117,0.059-0.176,0.117-0.176,0.176
			c0,0.078,0.039,0.156,0.117,0.234l0.85,0.615c0.586,0.43,0.879,1.133,0.879,2.109c0,1.035-0.312,1.729-0.938,2.08l-0.85,0.615
			c-0.02,0.019-0.04,0.059-0.059,0.117c0,0.117,0.176,0.254,0.527,0.41C336.411,607.119,336.85,607.92,336.85,609.15z
			 M331.167,614.922c0,0.801-0.278,1.489-0.835,2.065c-0.557,0.576-1.235,0.864-2.036,0.864H315.61c-0.86,0-1.582-0.269-2.168-0.806
			s-0.879-1.206-0.879-2.007c0-0.742,0.283-1.387,0.85-1.934c0.566-0.547,1.22-0.82,1.963-0.82l13.33-0.088
			c0.625-0.039,1.191,0.225,1.699,0.791C330.913,613.555,331.167,614.199,331.167,614.922z"/>
		<path fill="#FFFFFF" d="M351.206,609.209c0,1.953-1.128,2.93-3.383,2.93c-1.099,0-1.883-0.137-2.354-0.41
			c-0.961-0.566-1.441-1.406-1.441-2.52c0-0.938,0.42-1.699,1.26-2.285c0.391-0.273,0.586-0.449,0.586-0.527
			c0-0.078-0.234-0.283-0.703-0.615c-0.762-0.41-1.143-1.162-1.143-2.256c0-1.25,0.478-2.09,1.436-2.519
			c0.273-0.098,0.41-0.205,0.41-0.322s-0.234-0.312-0.703-0.586c-0.762-0.43-1.143-1.191-1.143-2.285
			c0-1.172,0.498-2.012,1.494-2.519c0.234-0.117,0.352-0.234,0.352-0.352c0-0.098-0.215-0.283-0.645-0.557
			c-0.801-0.488-1.201-1.27-1.201-2.344c0-1.152,0.517-2.012,1.553-2.578c0.234-0.117,0.352-0.215,0.352-0.293
			c0-0.059-0.098-0.156-0.293-0.293c-1.074-0.547-1.611-1.426-1.611-2.637c0-1.152,0.458-1.953,1.377-2.402
			c0.312-0.156,0.469-0.303,0.469-0.44c-0.02-0.098-0.059-0.176-0.117-0.234l-0.762-0.469c-0.645-0.391-0.967-1.113-0.967-2.168
			c0-1.914,1.128-2.871,3.383-2.871c1.118,0,1.912,0.137,2.383,0.41c0.941,0.547,1.412,1.367,1.412,2.461
			c0,1.152-0.517,1.992-1.548,2.52c-0.199,0.117-0.297,0.234-0.297,0.352c0,0.098,0.228,0.283,0.685,0.557
			c0.774,0.469,1.161,1.27,1.161,2.402c0,0.996-0.536,1.836-1.608,2.52c-0.14,0.039-0.219,0.117-0.238,0.234
			c0,0.195,0.139,0.352,0.417,0.469c0.953,0.449,1.429,1.23,1.429,2.344c0,1.191-0.387,1.992-1.161,2.402
			c-0.457,0.254-0.685,0.459-0.685,0.615c0.02,0.098,0.06,0.176,0.119,0.234l0.565,0.293c0.774,0.43,1.161,1.211,1.161,2.344
			c0,0.957-0.348,1.699-1.042,2.227c-0.536,0.293-0.804,0.488-0.804,0.586s0.208,0.303,0.625,0.615c0.813,0.43,1.22,1.191,1.22,2.285
			c0,1.074-0.387,1.846-1.161,2.314c-0.457,0.293-0.685,0.479-0.685,0.557c0,0.117,0.02,0.195,0.06,0.234l0.923,0.615
			C350.917,607.617,351.206,608.271,351.206,609.209z M371.274,614.981c0,0.84-0.274,1.528-0.82,2.065
			c-0.547,0.537-1.26,0.806-2.139,0.806h-15.41c-0.898,0-1.646-0.269-2.241-0.806c-0.596-0.537-0.894-1.206-0.894-2.007
			c0-0.859,0.322-1.562,0.967-2.109c0.527-0.43,1.572-0.644,3.135-0.644h14.326c0.898,0,1.636,0.254,2.212,0.762
			C370.985,613.555,371.274,614.199,371.274,614.981z"/>
		<path fill="#FFFFFF" d="M397.084,597.812c0,0.859-0.293,1.553-0.879,2.08c-0.586,0.527-1.338,0.791-2.256,0.791h-11.338
			c-0.645,0-1.016,0.049-1.113,0.146c-0.059,0.02-0.088,0.078-0.088,0.176c0,0.098,0.137,0.234,0.41,0.41
			c0.645,0.566,0.967,1.309,0.967,2.227c0,1.074-0.42,1.846-1.26,2.314c-0.391,0.234-0.586,0.4-0.586,0.498
			c0,0.078,0.195,0.234,0.586,0.469c0.84,0.508,1.26,1.289,1.26,2.344c0,1.914-1.102,2.871-3.308,2.871
			c-2.54,0-3.811-0.938-3.811-2.812c0-1.113,0.554-1.973,1.663-2.578c0.161-0.156,0.242-0.254,0.242-0.293
			c0-0.117-0.242-0.303-0.726-0.557c-0.786-0.391-1.179-1.162-1.179-2.314c0-1.269,0.494-2.09,1.481-2.461
			c0.282-0.117,0.423-0.244,0.423-0.381c-0.02-0.098-0.061-0.156-0.121-0.176l-0.816-0.469c-0.645-0.391-0.967-1.152-0.967-2.285
			c0-1.055,0.414-1.836,1.241-2.344l0.484-0.234c0.081-0.039,0.121-0.098,0.121-0.176c0-0.078-0.04-0.156-0.117-0.234l-0.791-0.557
			c-0.625-0.449-0.938-1.172-0.938-2.168c0-1.016,0.371-1.748,1.113-2.197l0.615-0.381c0.078-0.039,0.117-0.098,0.117-0.176
			c0-0.156-0.02-0.234-0.059-0.234l-0.908-0.586c-0.586-0.41-0.879-1.094-0.879-2.051c0-1.953,1.191-2.93,3.574-2.93
			c2.363,0,3.544,0.957,3.544,2.871c0,0.977-0.293,1.68-0.879,2.109l-0.85,0.586c-0.078,0.039-0.117,0.098-0.117,0.176
			c0,0.078,0.039,0.156,0.117,0.234l0.703,0.439c0.684,0.391,1.025,1.123,1.025,2.197c0,1.016-0.361,1.758-1.084,2.227
			c-0.195,0.137-0.293,0.264-0.293,0.381c0,0.195,0.4,0.293,1.201,0.293h11.514C396.098,595.059,397.084,595.977,397.084,597.812z
			 M402.768,580.63c0,0.7-0.283,1.356-0.85,1.968c-0.566,0.612-1.162,0.918-1.787,0.918h-15.645c-0.898,0-1.635-0.267-2.211-0.802
			c-0.576-0.534-0.865-1.209-0.865-2.025c0-0.777,0.273-1.447,0.82-2.011c0.547-0.563,1.191-0.846,1.934-0.846h15.615
			c0.84,0,1.549,0.268,2.125,0.802C402.48,579.168,402.768,579.833,402.768,580.63z M402.826,614.981
			c0,0.723-0.277,1.382-0.834,1.977c-0.557,0.596-1.178,0.894-1.861,0.894h-15.41c-2.207,0-3.311-0.938-3.311-2.812
			c0-0.723,0.264-1.362,0.791-1.919c0.527-0.557,1.123-0.835,1.787-0.835l16.875,0.117c0.527,0.078,0.986,0.381,1.377,0.908
			C402.631,613.838,402.826,614.394,402.826,614.981z"/>
		<path fill="#FFFFFF" d="M438.48,586.24c0,0.859-0.298,1.572-0.894,2.139s-1.343,0.85-2.241,0.85h-3.838
			c-0.156,0-0.234,0.078-0.234,0.234c0,0.098,0.162,0.264,0.488,0.498c0.67,0.469,1.006,1.182,1.006,2.139
			c0,1.074-0.373,1.816-1.118,2.227l-0.725,0.439c-0.06,0.039-0.091,0.117-0.091,0.234c0,0.137,0.171,0.273,0.514,0.41
			c0.946,0.508,1.42,1.289,1.42,2.344c0,1.152-0.413,1.973-1.238,2.461c-0.464,0.195-0.695,0.371-0.695,0.527
			c0.019,0.059,0.049,0.117,0.088,0.176l0.645,0.439c0.723,0.449,1.084,1.211,1.084,2.285c0,1.055-0.342,1.787-1.025,2.197
			c-0.527,0.332-0.791,0.557-0.791,0.674c0,0.078,0.283,0.322,0.85,0.732c0.645,0.449,0.967,1.162,0.967,2.139
			c0,1.113-0.381,1.875-1.143,2.285c-0.449,0.293-0.674,0.498-0.674,0.615c0,0.098,0.225,0.293,0.674,0.586
			c0.762,0.508,1.143,1.25,1.143,2.227c0,1.953-1.182,2.93-3.545,2.93c-1.035,0-1.777-0.137-2.227-0.41
			c-0.918-0.585-1.377-1.423-1.377-2.516c0-1.15,0.478-1.95,1.435-2.398c0.293-0.137,0.44-0.272,0.44-0.41
			c0-0.116-0.147-0.243-0.44-0.38c-0.957-0.429-1.435-1.268-1.435-2.516c0-1.015,0.381-1.775,1.142-2.282l0.557-0.351
			c0.098-0.058,0.156-0.137,0.176-0.234c-0.02-0.117-0.059-0.176-0.117-0.176l-0.733-0.497c-0.684-0.448-1.025-1.18-1.025-2.193
			c0-1.132,0.4-1.911,1.201-2.341c0.41-0.273,0.615-0.458,0.615-0.556c0-0.117-0.205-0.293-0.615-0.527
			c-0.801-0.486-1.201-1.286-1.201-2.398c0-1.209,0.517-2.048,1.553-2.516c0.215-0.098,0.322-0.194,0.322-0.293
			c0-0.136-0.283-0.38-0.85-0.731c-0.684-0.409-1.025-1.15-1.025-2.224c0-1.17,0.459-1.969,1.377-2.398
			c0.332-0.195,0.498-0.331,0.498-0.409c0-0.156-0.166-0.312-0.498-0.468c-0.918-0.468-1.377-1.288-1.377-2.458
			c0-1.014,0.361-1.774,1.084-2.281l0.674-0.352c0.078-0.078,0.117-0.166,0.117-0.263c-0.02-0.098-0.059-0.156-0.117-0.176
			l-0.615-0.352c-0.762-0.448-1.142-1.228-1.142-2.34c0-1.911,1.084-2.867,3.252-2.867c1.484,0,2.524,0.28,3.12,0.842
			c0.596,0.561,0.894,1.228,0.894,2c0,0.89-0.381,1.644-1.143,2.263c-0.195,0.193-0.293,0.329-0.293,0.405
			c0,0.155,0.254,0.232,0.762,0.232h3.545c0.762,0,1.426,0.274,1.992,0.82C438.197,584.824,438.48,585.479,438.48,586.24z
			 M444.223,592.041c0,1.973-1.162,2.959-3.486,2.959c-1.016,0-1.748-0.146-2.197-0.44c-1.016-0.605-1.523-1.426-1.523-2.461
			c0-1.914,1.123-2.871,3.369-2.871C442.943,589.229,444.223,590.166,444.223,592.041z M455.736,615.156
			c0,1.133-0.498,1.973-1.494,2.519c-0.43,0.234-1.123,0.352-2.08,0.352c-2.402,0-3.603-0.957-3.603-2.871
			c0-1.113,0.439-1.914,1.318-2.402c0.351-0.195,0.527-0.332,0.527-0.41c0-0.117-0.254-0.342-0.762-0.674
			c-0.723-0.449-1.084-1.191-1.084-2.227c0-1.035,0.361-1.768,1.084-2.197l0.645-0.498c0.078-0.039,0.117-0.098,0.117-0.176
			c-0.02-0.098-0.059-0.176-0.117-0.234l-0.732-0.498c-0.664-0.449-0.996-1.182-0.996-2.197c0-0.898,0.312-1.602,0.938-2.109
			c0.254-0.195,0.4-0.352,0.439-0.469c0-0.215-0.185-0.322-0.557-0.322h-2.988c-2.402,0-3.604-0.938-3.604-2.812
			c0-0.723,0.273-1.382,0.82-1.978c0.547-0.596,1.133-0.893,1.758-0.893h4.336c0.156,0,0.234-0.078,0.234-0.234
			c0-0.176-0.146-0.361-0.439-0.557c-0.625-0.43-0.938-1.152-0.938-2.168c0-1.133,0.4-1.904,1.201-2.314
			c0.43-0.234,0.645-0.4,0.645-0.498c0-0.117-0.02-0.195-0.059-0.234l-0.967-0.674c-0.547-0.371-0.82-1.025-0.82-1.963
			c0-1.133,0.381-1.914,1.143-2.344c0.508-0.293,0.762-0.498,0.762-0.615c-0.021-0.098-0.061-0.176-0.121-0.234l-0.605-0.352
			c-0.786-0.449-1.179-1.211-1.179-2.285c0-1.914,1.23-2.871,3.692-2.871c2.323,0,3.485,0.957,3.485,2.871
			c0,1.094-0.332,1.836-0.996,2.227l-0.732,0.41c-0.078,0.078-0.117,0.156-0.117,0.234c0.02,0.117,0.078,0.205,0.176,0.264
			l0.527,0.293c0.762,0.547,1.143,1.328,1.143,2.344c0,0.996-0.557,1.875-1.67,2.637c-0.117,0.117-0.176,0.195-0.176,0.234
			c0,0.137,0.264,0.361,0.791,0.674c0.703,0.41,1.055,1.162,1.055,2.256c0,1.035-0.352,1.777-1.055,2.227l-0.674,0.439
			c-0.078,0.078-0.117,0.137-0.117,0.176c0,0.098,0.215,0.273,0.645,0.527c0.801,0.488,1.201,1.25,1.201,2.285
			s-0.293,1.758-0.879,2.168c-0.645,0.43-0.967,0.703-0.967,0.82c0.02,0.117,0.078,0.205,0.176,0.264l0.732,0.469
			c0.625,0.43,0.938,1.152,0.938,2.168c0,1.016-0.381,1.768-1.143,2.256l-0.527,0.381c-0.117,0.059-0.176,0.137-0.176,0.234
			c0.02,0.117,0.078,0.195,0.176,0.234l0.732,0.498c0.625,0.41,0.938,1.104,0.938,2.08c0,1.113-0.381,1.894-1.143,2.344
			c-0.469,0.293-0.703,0.498-0.703,0.615c0,0.098,0.137,0.234,0.41,0.41c0.059,0.019,0.117,0.059,0.176,0.117
			C455.316,613.438,455.736,614.199,455.736,615.156z"/>
		<path fill="#FFFFFF" d="M484.33,597.812c0,0.859-0.293,1.553-0.879,2.08c-0.586,0.527-1.338,0.791-2.256,0.791h-11.338
			c-0.645,0-1.016,0.049-1.113,0.146c-0.059,0.02-0.088,0.078-0.088,0.176c0,0.098,0.137,0.234,0.41,0.41
			c0.645,0.566,0.967,1.309,0.967,2.227c0,1.074-0.42,1.846-1.26,2.314c-0.391,0.234-0.586,0.4-0.586,0.498
			c0,0.078,0.195,0.234,0.586,0.469c0.84,0.508,1.26,1.289,1.26,2.344c0,1.914-1.103,2.871-3.309,2.871
			c-2.54,0-3.81-0.938-3.81-2.812c0-1.113,0.554-1.973,1.662-2.578c0.162-0.156,0.242-0.254,0.242-0.293
			c0-0.117-0.242-0.303-0.726-0.557c-0.786-0.391-1.179-1.162-1.179-2.314c0-1.269,0.493-2.09,1.481-2.461
			c0.282-0.117,0.423-0.244,0.423-0.381c-0.021-0.098-0.061-0.156-0.121-0.176l-0.816-0.469c-0.645-0.391-0.967-1.152-0.967-2.285
			c0-1.055,0.413-1.836,1.24-2.344l0.484-0.234c0.081-0.039,0.121-0.098,0.121-0.176c0-0.078-0.039-0.156-0.117-0.234l-0.791-0.557
			c-0.625-0.449-0.938-1.172-0.938-2.168c0-1.016,0.371-1.748,1.113-2.197l0.615-0.381c0.078-0.039,0.117-0.098,0.117-0.176
			c0-0.156-0.02-0.234-0.059-0.234l-0.908-0.586c-0.586-0.41-0.879-1.094-0.879-2.051c0-1.953,1.191-2.93,3.574-2.93
			c2.363,0,3.545,0.957,3.545,2.871c0,0.977-0.293,1.68-0.879,2.109l-0.85,0.586c-0.078,0.039-0.117,0.098-0.117,0.176
			c0,0.078,0.039,0.156,0.117,0.234l0.703,0.439c0.684,0.391,1.025,1.123,1.025,2.197c0,1.016-0.361,1.758-1.084,2.227
			c-0.195,0.137-0.293,0.264-0.293,0.381c0,0.195,0.4,0.293,1.201,0.293h11.514C483.344,595.059,484.33,595.977,484.33,597.812z
			 M490.014,580.63c0,0.7-0.283,1.356-0.85,1.968s-1.162,0.918-1.787,0.918h-15.645c-0.898,0-1.636-0.267-2.212-0.802
			c-0.576-0.534-0.864-1.209-0.864-2.025c0-0.777,0.273-1.447,0.82-2.011c0.547-0.563,1.191-0.846,1.934-0.846h15.615
			c0.84,0,1.548,0.268,2.124,0.802C489.726,579.168,490.014,579.833,490.014,580.63z M490.072,614.981
			c0,0.723-0.278,1.382-0.835,1.977c-0.557,0.596-1.177,0.894-1.86,0.894h-15.41c-2.207,0-3.311-0.938-3.311-2.812
			c0-0.723,0.264-1.362,0.791-1.919c0.527-0.557,1.123-0.835,1.787-0.835l16.875,0.117c0.527,0.078,0.986,0.381,1.377,0.908
			C489.877,613.838,490.072,614.394,490.072,614.981z"/>
		<path fill="#FFFFFF" d="M523.383,580.63c0,1.924-1.123,2.886-3.369,2.886h-8.086c-0.918,0-1.377,0.098-1.377,0.293
			c0,0.04,0.02,0.079,0.06,0.117l0.718,0.704c0.419,0.41,0.629,1.036,0.629,1.877c0,1.192-0.486,2.013-1.459,2.463
			c-0.258,0.117-0.387,0.234-0.387,0.352s0.02,0.195,0.06,0.234l0.744,0.499c0.694,0.449,1.042,1.173,1.042,2.17
			c0,1.192-0.486,2.003-1.458,2.434c-0.298,0.176-0.446,0.322-0.446,0.44c0,0.117,0.148,0.234,0.446,0.352
			c0.972,0.431,1.458,1.271,1.458,2.522c0,1.095-0.526,1.936-1.577,2.522c-0.218,0.117-0.327,0.234-0.327,0.352
			c0,0.098,0.129,0.205,0.387,0.322c1.012,0.45,1.518,1.31,1.518,2.581c0,1.192-0.427,1.994-1.279,2.404
			c-0.417,0.176-0.625,0.312-0.625,0.41c0,0.137,0.163,0.273,0.49,0.41c0.942,0.47,1.414,1.291,1.414,2.463
			c0,1.037-0.355,1.779-1.067,2.229c-0.518,0.333-0.778,0.558-0.778,0.675c0,0.098,0.145,0.216,0.433,0.352
			c0.942,0.45,1.413,1.271,1.413,2.464c0,1.915-1.167,2.873-3.501,2.873c-1.039,0-1.804-0.137-2.294-0.41
			c-0.922-0.548-1.383-1.349-1.383-2.404c0-1.095,0.373-1.857,1.118-2.287l0.634-0.353c0.121-0.077,0.182-0.136,0.182-0.176
			c0-0.156-0.061-0.264-0.182-0.322l-0.694-0.411c-0.705-0.43-1.058-1.173-1.058-2.229c0-1.074,0.413-1.856,1.238-2.345
			c0.464-0.255,0.695-0.411,0.695-0.47c-0.021-0.098-0.061-0.176-0.121-0.234l-0.876-0.558c-0.624-0.371-0.936-1.065-0.936-2.081
			c0-1.056,0.352-1.799,1.058-2.229l0.694-0.41c0.102-0.059,0.161-0.146,0.182-0.264c0-0.078-0.303-0.312-0.908-0.703
			c-0.684-0.45-1.025-1.192-1.025-2.229c0-1.173,0.537-2.014,1.611-2.522c0.215-0.136,0.322-0.234,0.322-0.293
			c-0.02-0.117-0.078-0.195-0.176-0.234l-0.557-0.323c-0.801-0.43-1.201-1.202-1.201-2.315c0-1.075,0.381-1.838,1.143-2.287
			c0.488-0.293,0.732-0.499,0.732-0.616s-0.039-0.176-0.117-0.176l-0.615-0.41c-0.762-0.548-1.143-1.29-1.143-2.229
			c0-0.938,0.361-1.701,1.084-2.288c0.234-0.136,0.352-0.273,0.352-0.41c0-0.195-0.4-0.293-1.201-0.293h-8.701
			c-0.859,0-1.582-0.267-2.168-0.802c-0.586-0.534-0.879-1.209-0.879-2.025c0-0.835,0.298-1.52,0.894-2.055
			c0.596-0.534,1.362-0.802,2.3-0.802h23.555c0.82,0,1.445,0.117,1.875,0.35C522.885,578.746,523.383,579.562,523.383,580.63z"/>
		<path fill="#FFFFFF" d="M535.453,586.343c0,1.17-0.547,2.028-1.641,2.574c-0.176,0.117-0.273,0.214-0.293,0.292
			c0,0.137,0.191,0.293,0.574,0.468c0.906,0.468,1.359,1.267,1.359,2.398c0,1.209-0.504,2.067-1.511,2.573
			c-0.282,0.117-0.423,0.244-0.423,0.381c0,0.117,0.141,0.234,0.423,0.352c1.007,0.429,1.511,1.267,1.511,2.515
			c0,1.111-0.393,1.872-1.179,2.281l-0.634,0.409c-0.081,0.02-0.121,0.078-0.121,0.176c0,0.098,0.292,0.322,0.876,0.673
			c0.705,0.409,1.058,1.131,1.058,2.164c0,0.975-0.312,1.687-0.936,2.135l-0.997,0.731v0.059c0,0.137,0.101,0.254,0.302,0.351
			c1.088,0.488,1.632,1.307,1.632,2.457c0,1.97-1.113,2.954-3.338,2.954c-1.221,0-2.048-0.147-2.48-0.439
			c-0.965-0.507-1.447-1.326-1.447-2.457c0-1.072,0.381-1.833,1.143-2.281c0.469-0.273,0.703-0.468,0.703-0.585
			c0-0.117-0.215-0.303-0.645-0.556c-0.801-0.429-1.201-1.199-1.201-2.311c0-1.15,0.459-1.97,1.377-2.457
			c0.312-0.136,0.469-0.282,0.469-0.438c0-0.117-0.254-0.331-0.762-0.643c-0.723-0.429-1.084-1.19-1.084-2.281
			c0-1.131,0.479-1.949,1.435-2.456c0.273-0.156,0.41-0.273,0.41-0.352v-0.117l-0.762-0.556c-0.723-0.487-1.084-1.228-1.084-2.223
			c0-1.033,0.381-1.784,1.143-2.252l0.645-0.438c0.078-0.078,0.117-0.137,0.117-0.176c0-0.078-0.04-0.156-0.121-0.234l-0.846-0.556
			c-0.625-0.37-0.938-1.082-0.938-2.135c0-1.131,0.514-1.97,1.542-2.516c0.241-0.136,0.362-0.263,0.362-0.38
			c0-0.059-0.021-0.117-0.06-0.176l-0.483-0.233c-0.907-0.429-1.36-1.248-1.36-2.457c0-1.911,1.211-2.866,3.633-2.866
			c1.004,0,1.732,0.137,2.186,0.409c0.965,0.604,1.447,1.443,1.447,2.516c0,1.15-0.547,2.009-1.641,2.574
			c-0.176,0.059-0.273,0.136-0.293,0.233c0,0.137,0.098,0.244,0.293,0.322C534.906,584.296,535.453,585.153,535.453,586.343z
			 M541.078,615.244c0,1.895-1.201,2.842-3.603,2.842c-2.363,0-3.545-0.986-3.545-2.959c0-1.046,0.449-1.836,1.348-2.368
			c0.508-0.315,1.299-0.474,2.373-0.474C539.935,612.285,541.078,613.271,541.078,615.244z M546.879,609.385
			c0,0.898-0.359,1.641-1.079,2.227c-0.448,0.449-1.44,0.674-2.977,0.674c-2.082,0-3.122-0.967-3.122-2.9
			c0-1.074,0.361-1.816,1.084-2.227l0.645-0.352c0.137-0.059,0.205-0.156,0.205-0.293c0-0.098-0.171-0.215-0.514-0.352
			c-0.946-0.41-1.42-1.231-1.42-2.461c0-1.191,0.5-2.031,1.5-2.52c0.393-0.254,1.157-0.381,2.295-0.381
			c2.255,0,3.383,0.986,3.383,2.959c0,1.113-0.452,1.894-1.356,2.344c-0.327,0.137-0.49,0.273-0.49,0.41
			c0,0.195,0.163,0.371,0.49,0.527C546.427,607.529,546.879,608.31,546.879,609.385z M552.592,615.273
			c-0.078,1.875-1.338,2.812-3.779,2.812c-2.227,0-3.34-0.996-3.34-2.988c0-1.836,1.152-2.754,3.457-2.754
			C551.469,612.344,552.69,613.32,552.592,615.273z M558.48,592.1c0,1.191-0.498,2.051-1.494,2.578
			c-0.273,0.117-0.41,0.244-0.41,0.381c0,0.098,0.161,0.234,0.483,0.41c0.947,0.508,1.421,1.328,1.421,2.461
			c0,1.055-0.353,1.797-1.059,2.227l-0.666,0.41c-0.081,0.078-0.121,0.137-0.121,0.176c0,0.156,0.222,0.381,0.666,0.674
			c0.786,0.41,1.18,1.172,1.18,2.285c0,1.133-0.514,1.973-1.542,2.52c-0.241,0.117-0.362,0.234-0.362,0.352
			c0,0.137,0.161,0.273,0.483,0.41c0.947,0.449,1.421,1.25,1.421,2.402c0,1.973-1.23,2.959-3.691,2.959
			c-1.024,0-1.753-0.146-2.187-0.44c-0.926-0.586-1.388-1.426-1.388-2.519c0-1.035,0.508-1.836,1.523-2.402
			c0.273-0.195,0.41-0.332,0.41-0.41c-0.141-0.195-0.453-0.44-0.936-0.733c-0.665-0.391-0.997-1.142-0.997-2.256
			c0-0.996,0.393-1.738,1.179-2.227c0.503-0.312,0.755-0.498,0.755-0.557c-0.021-0.019-0.035-0.044-0.045-0.073
			c-0.011-0.029-0.016-0.063-0.016-0.102l-0.937-0.586c-0.624-0.41-0.937-1.094-0.937-2.051c0-1.152,0.393-1.934,1.179-2.344
			c0.503-0.312,0.755-0.527,0.755-0.644c0-0.098-0.231-0.264-0.695-0.498c-0.825-0.508-1.238-1.289-1.238-2.344
			c0-1.113,0.504-1.953,1.511-2.52c0.282-0.156,0.423-0.293,0.423-0.41c0-0.098-0.166-0.234-0.498-0.41
			c-0.879-0.508-1.318-1.309-1.318-2.402c0-1.133,0.4-1.934,1.201-2.402c0.449-0.254,0.674-0.439,0.674-0.557
			c0-0.117-0.156-0.234-0.469-0.351c-0.938-0.449-1.406-1.231-1.406-2.344c0-2.031,1.123-3.047,3.369-3.047
			c1.211,0,2.012,0.137,2.402,0.41c0.918,0.527,1.377,1.348,1.377,2.461c0,1.191-0.42,1.992-1.26,2.402
			c-0.391,0.195-0.586,0.352-0.586,0.469c0,0.137,0.156,0.283,0.469,0.44c0.918,0.43,1.377,1.25,1.377,2.461
			c0,1.133-0.42,1.934-1.26,2.402c-0.43,0.234-0.645,0.391-0.645,0.469c0,0.137,0.176,0.293,0.527,0.469
			C558.021,590.185,558.48,590.986,558.48,592.1z"/>
		<path fill="#FFFFFF" d="M572.396,609.268c0,0.84-0.293,1.518-0.879,2.036c-0.586,0.518-1.348,0.776-2.285,0.776h-0.557
			c-2.266,0-3.398-0.938-3.398-2.812c0-1.016,0.352-1.758,1.055-2.227l0.674-0.41c0.078-0.078,0.117-0.137,0.117-0.176
			c0-0.156-0.06-0.234-0.182-0.234l-0.574-0.381c-0.727-0.469-1.09-1.221-1.09-2.256c0-1.055,0.343-1.816,1.028-2.285l0.696-0.381
			c0.081-0.059,0.121-0.137,0.121-0.234c-0.021-0.098-0.06-0.156-0.121-0.176l-0.938-0.703c-0.525-0.43-0.787-1.074-0.787-1.934
			c0-1.152,0.363-1.914,1.09-2.285c0.504-0.293,0.756-0.488,0.756-0.586c0-0.117-0.04-0.195-0.121-0.234l-0.696-0.498
			c-0.686-0.488-1.028-1.211-1.028-2.168c0-1.094,0.413-1.865,1.24-2.314c0.403-0.234,0.605-0.42,0.605-0.557
			c0-0.059-0.021-0.117-0.06-0.176l-0.817-0.527c-0.645-0.449-0.968-1.152-0.968-2.109c0-0.859,0.305-1.582,0.916-2.168
			c0.61-0.586,1.349-0.85,2.215-0.791l0.739,0.088c2.166,0.176,3.249,1.113,3.249,2.812c0,1.074-0.273,1.797-0.82,2.168l-0.85,0.527
			c-0.078,0.078-0.117,0.137-0.117,0.176c0.02,0.098,0.059,0.176,0.117,0.234l0.703,0.498c0.644,0.43,0.967,1.143,0.967,2.139
			c0,1.016-0.322,1.738-0.967,2.168l-0.703,0.498c-0.078,0.078-0.117,0.137-0.117,0.176c0,0.137,0.254,0.352,0.762,0.644
			c0.684,0.41,1.025,1.152,1.025,2.227c0,1.055-0.342,1.797-1.025,2.227l-0.645,0.41c-0.078,0.078-0.117,0.156-0.117,0.234
			c0.02,0.098,0.059,0.176,0.117,0.234l0.586,0.381c0.723,0.43,1.084,1.191,1.084,2.285c0,1.211-0.498,2.051-1.494,2.52
			c-0.195,0.117-0.293,0.215-0.293,0.293c0,0.117,0.137,0.254,0.41,0.41C571.938,607.334,572.396,608.154,572.396,609.268z
			 M589.565,614.981c0,0.84-0.288,1.528-0.864,2.065s-1.333,0.806-2.271,0.806h-12.656c-0.723,0-1.362-0.283-1.919-0.85
			c-0.557-0.567-0.835-1.221-0.835-1.963c0-0.781,0.283-1.436,0.85-1.963s1.289-0.791,2.168-0.791h12.48
			C588.549,612.285,589.565,613.184,589.565,614.981z M589.623,580.644c0,1.875-1.104,2.812-3.31,2.812h-10.488
			c-1.797,0-2.92-0.117-3.369-0.351c-0.918-0.488-1.377-1.309-1.377-2.461c0-0.742,0.259-1.396,0.776-1.963s1.118-0.85,1.802-0.85
			h12.978c0.859,0,1.572,0.269,2.139,0.806S589.623,579.844,589.623,580.644z M595.365,597.871c0,1.055-0.348,1.797-1.041,2.227
			l-0.804,0.469c-0.04,0.019-0.06,0.078-0.06,0.176c0.021,0.098,0.062,0.185,0.123,0.264l0.706,0.41
			c0.717,0.43,1.075,1.133,1.075,2.109c0,1.113-0.379,1.885-1.137,2.314c-0.512,0.293-0.768,0.498-0.768,0.615
			c0,0.137,0.235,0.332,0.706,0.586c0.799,0.449,1.198,1.191,1.198,2.227c0,1.914-1.137,2.871-3.411,2.871
			c-2.511,0-3.767-0.938-3.767-2.812c0-1.113,0.4-1.895,1.201-2.344c0.391-0.215,0.586-0.391,0.586-0.527
			c-0.02-0.098-0.059-0.176-0.117-0.234l-0.703-0.498c-0.645-0.43-0.967-1.143-0.967-2.139c0-1.191,0.44-1.992,1.318-2.402
			l0.117-0.059c0.273-0.137,0.41-0.244,0.41-0.322c0-0.117-0.254-0.332-0.762-0.644c-0.723-0.43-1.084-1.192-1.084-2.285
			c0-1.094,0.4-1.875,1.201-2.344c0.43-0.254,0.645-0.43,0.645-0.527c-0.02-0.117-0.059-0.176-0.117-0.176l-0.586-0.439
			c-0.762-0.371-1.143-1.133-1.143-2.285c0-0.977,0.361-1.689,1.084-2.139l0.645-0.439c0.078-0.078,0.117-0.156,0.117-0.234
			c0-0.117-0.273-0.332-0.82-0.645c-0.684-0.41-1.025-1.113-1.025-2.109c0-1.953,1.128-2.93,3.383-2.93
			c1.177,0,1.951,0.117,2.324,0.352c0.981,0.605,1.471,1.426,1.471,2.461c0,1.113-0.407,1.894-1.22,2.344
			c-0.457,0.293-0.685,0.469-0.685,0.527c0,0.078,0.039,0.156,0.119,0.234l0.804,0.498c0.654,0.469,0.981,1.182,0.981,2.139
			c0,1.172-0.446,1.973-1.339,2.402c-0.377,0.195-0.565,0.342-0.565,0.44c0,0.137,0.099,0.254,0.298,0.352
			C594.83,595.879,595.365,596.719,595.365,597.871z"/>
		<path fill="#FFFFFF" d="M626.889,580.63c0,0.816-0.283,1.501-0.85,2.056c-0.566,0.554-1.27,0.83-2.109,0.83h-14.678
			c-0.606,0-0.908,0.078-0.908,0.234c0,0.156,0.096,0.313,0.286,0.469c0.708,0.665,1.062,1.369,1.062,2.111
			c0,1.134-0.395,1.936-1.183,2.405c-0.442,0.254-0.663,0.43-0.663,0.527c0.039,0.156,0.089,0.234,0.148,0.234l0.715,0.558
			c0.654,0.469,0.982,1.163,0.982,2.082c0,0.996-0.327,1.72-0.981,2.169l-0.863,0.616c0,0.02-0.005,0.034-0.016,0.044
			c-0.01,0.01-0.024,0.034-0.044,0.073c0,0.098,0.268,0.312,0.804,0.645c0.733,0.469,1.101,1.212,1.101,2.229
			c0,1.114-0.388,1.896-1.161,2.346c-0.457,0.254-0.685,0.43-0.685,0.527c0,0.137,0.188,0.303,0.565,0.498
			c0.854,0.431,1.28,1.231,1.28,2.404c0,1.037-0.546,1.906-1.638,2.61c-0.139,0.078-0.208,0.166-0.208,0.264s0.287,0.342,0.863,0.733
			c0.654,0.43,0.982,1.144,0.982,2.14c0,1.135-0.486,1.956-1.457,2.464c-0.317,0.156-0.486,0.283-0.506,0.381
			c0,0.137,0.069,0.234,0.208,0.293l0.595,0.411c0.773,0.527,1.16,1.251,1.16,2.17c0,1.877-1.108,2.815-3.324,2.815
			c-1.078,0-1.795-0.078-2.148-0.234c-1.138-0.488-1.706-1.367-1.706-2.637c0-1.27,0.479-2.09,1.435-2.461
			c0.254-0.098,0.381-0.215,0.381-0.352c0-0.137-0.264-0.361-0.791-0.674c-0.684-0.41-1.025-1.152-1.025-2.227
			c0-1.016,0.342-1.758,1.025-2.227c0.527-0.273,0.791-0.469,0.791-0.586c0-0.117-0.02-0.195-0.059-0.234l-0.85-0.557
			c-0.605-0.371-0.908-1.065-0.908-2.08c0-1.074,0.381-1.855,1.143-2.344l0.615-0.293c0.078-0.098,0.117-0.186,0.117-0.264
			c0-0.098-0.186-0.234-0.557-0.41c-0.879-0.547-1.318-1.367-1.318-2.461c0-1.074,0.42-1.855,1.26-2.344
			c0.41-0.273,0.615-0.449,0.615-0.527c0-0.078-0.107-0.176-0.322-0.293c-1.035-0.488-1.553-1.357-1.553-2.607
			c0-1.152,0.439-1.943,1.318-2.373c0.371-0.195,0.557-0.361,0.557-0.498c0-0.098-0.205-0.254-0.615-0.469
			c-0.84-0.449-1.26-1.231-1.26-2.344c0-1.094,0.361-1.856,1.084-2.285c0.488-0.293,0.732-0.488,0.732-0.586
			c0-0.137-0.039-0.244-0.117-0.322l-0.732-0.469c-0.645-0.43-0.967-1.133-0.967-2.109c0-1.27,0.518-2.129,1.553-2.578
			c0.469-0.195,1.631-0.293,3.486-0.293h16.494c0.781,0,1.45,0.277,2.007,0.831C626.61,579.217,626.889,579.872,626.889,580.63z
			 M626.889,597.871c0,1.953-1.104,2.93-3.311,2.93h-3.603c-0.156,0-0.234,0.088-0.234,0.264c0,0.117,0.137,0.273,0.41,0.469
			c0.644,0.43,0.967,1.133,0.967,2.109c0,1.953-1.104,2.93-3.311,2.93c-1.152,0-1.973-0.137-2.461-0.41
			c-0.918-0.547-1.377-1.367-1.377-2.461c0-0.762,0.244-1.387,0.732-1.875l0.645-0.527c0.019-0.039,0.034-0.073,0.044-0.103
			c0.01-0.029,0.024-0.054,0.044-0.073c0-0.215-0.088-0.322-0.264-0.322h-1.318c-0.684,0-1.304-0.288-1.86-0.864
			c-0.557-0.576-0.835-1.226-0.835-1.948c0-0.801,0.268-1.47,0.806-2.007c0.537-0.537,1.206-0.806,2.007-0.806h9.609
			c1.035,0,1.797,0.195,2.285,0.586C626.547,596.328,626.889,597.031,626.889,597.871z M626.889,609.385
			c0,1.133-0.479,1.973-1.436,2.519c-0.43,0.254-1.133,0.381-2.109,0.381c-0.957,0-1.641-0.108-2.051-0.322
			c-1.035-0.508-1.553-1.328-1.553-2.461c0-1.133,0.498-1.973,1.494-2.52c0.449-0.234,1.133-0.352,2.051-0.352
			c1.035,0,1.777,0.117,2.227,0.352C626.43,607.49,626.889,608.291,626.889,609.385z M632.631,592.158
			c0,0.879-0.312,1.592-0.938,2.139c-0.625,0.547-1.426,0.82-2.402,0.82c-2.52,0-3.779-0.986-3.779-2.959
			c0-0.977,0.312-1.67,0.938-2.08l0.674-0.439c0.117-0.098,0.176-0.195,0.176-0.293v-0.117l-0.117-0.117l-0.674-0.41
			c-0.664-0.43-0.996-1.113-0.996-2.051c0-1.992,1.172-2.988,3.516-2.988c2.402,0,3.604,0.938,3.604,2.812
			c0,0.977-0.361,1.719-1.084,2.227l-0.586,0.41c-0.098,0.059-0.156,0.137-0.176,0.234c0,0.137,0.176,0.303,0.527,0.498
			C632.191,590.273,632.631,591.045,632.631,592.158z M632.572,615.069c0,1.933-1.133,2.9-3.398,2.9
			c-2.441,0-3.662-0.928-3.662-2.783c0-1.894,1.094-2.842,3.281-2.842C631.312,612.344,632.572,613.252,632.572,615.069z"/>
		<path fill="#FFFFFF" d="M653.461,597.871c0,1.953-1.084,2.93-3.252,2.93h-5.156c-0.117,0-0.176,0.068-0.176,0.205
			c0,0.117,0.134,0.293,0.401,0.527c0.631,0.508,0.946,1.23,0.946,2.168c0,1.094-0.375,1.846-1.125,2.256l-0.634,0.381
			c-0.039,0.039-0.067,0.098-0.087,0.176c0,0.117,0.029,0.195,0.087,0.234l0.749,0.557c0.673,0.469,1.01,1.182,1.01,2.139
			c0,1.035-0.528,1.894-1.586,2.578c-0.154,0.059-0.24,0.147-0.26,0.264c0,0.117,0.221,0.312,0.663,0.586
			c0.788,0.488,1.183,1.25,1.183,2.285c0,1.172-0.516,2.031-1.546,2.578c-0.39,0.195-1.129,0.293-2.218,0.293
			c-2.276,0-3.414-0.955-3.414-2.867c0-1.111,0.547-1.95,1.641-2.516c0.156-0.117,0.234-0.214,0.234-0.293
			c0-0.136-0.146-0.282-0.44-0.439c-0.957-0.507-1.435-1.326-1.435-2.457c0-1.131,0.439-1.931,1.318-2.4
			c0.371-0.175,0.557-0.331,0.557-0.468c-0.02-0.097-0.059-0.176-0.117-0.234l-0.791-0.497c-0.645-0.468-0.967-1.199-0.967-2.193
			c0-1.151,0.547-2.009,1.641-2.575c0.098-0.077,0.195-0.165,0.293-0.263c0-0.098-0.059-0.176-0.176-0.234l-0.498-0.293
			c-0.84-0.429-1.26-1.229-1.26-2.398c0-1.229,0.498-2.067,1.494-2.516c0.254-0.098,0.381-0.215,0.381-0.352
			c0-0.098-0.205-0.263-0.615-0.497c-0.84-0.448-1.26-1.248-1.26-2.399c0-1.17,0.42-1.969,1.26-2.398
			c0.41-0.195,0.615-0.351,0.615-0.468c0-0.039-0.02-0.098-0.059-0.176l-0.732-0.409c-0.723-0.43-1.084-1.19-1.084-2.282
			c0-1.072,0.361-1.833,1.084-2.281l0.674-0.41c0.078-0.039,0.117-0.107,0.117-0.204c0-0.078-0.039-0.156-0.117-0.234l-0.732-0.41
			c-0.684-0.39-1.025-1.131-1.025-2.223c0-1.95,1.196-2.926,3.589-2.926c2.393,0,3.589,0.954,3.589,2.861
			c0,1.129-0.472,1.966-1.414,2.511c-0.308,0.176-0.471,0.292-0.49,0.351c0,0.156,0.048,0.244,0.144,0.263l0.692,0.468
			c0.711,0.486,1.067,1.226,1.067,2.219c0,1.246-0.49,2.083-1.471,2.511c-0.25,0.098-0.375,0.195-0.375,0.292
			c0,0.117,0.029,0.195,0.089,0.234l0.715,0.438c0.694,0.525,1.042,1.295,1.042,2.307c0,0.856-0.225,1.479-0.674,1.869
			c-0.449,0.389-0.674,0.633-0.674,0.729c0,0.195,0.078,0.292,0.234,0.292h5.508c0.762,0,1.426,0.273,1.992,0.82
			C653.178,596.426,653.461,597.09,653.461,597.871z M657.768,591.982c0,2.012-1.201,3.018-3.604,3.018
			c-2.402,0-3.604-0.967-3.604-2.9c0-1.914,1.201-2.871,3.604-2.871C656.566,589.229,657.768,590.146,657.768,591.982z
			 M657.768,603.584c0,1.992-1.182,2.988-3.545,2.988c-2.441,0-3.662-0.957-3.662-2.871c0-1.973,1.182-2.959,3.545-2.959
			C656.547,600.742,657.768,601.69,657.768,603.584z M663.539,586.299c0,1.953-1.143,2.93-3.428,2.93
			c-1.035,0-1.816-0.137-2.344-0.41c-0.957-0.527-1.436-1.348-1.436-2.461c0-1.934,1.221-2.9,3.662-2.9
			C662.357,583.457,663.539,584.404,663.539,586.299z M663.539,609.385c0,0.84-0.322,1.582-0.967,2.227
			c-0.43,0.449-1.465,0.674-3.105,0.674c-0.898,0-1.636-0.269-2.212-0.806s-0.864-1.216-0.864-2.036c0-1.914,1.26-2.871,3.779-2.871
			c0.996,0,1.807,0.259,2.432,0.776C663.227,607.866,663.539,608.545,663.539,609.385z M669.281,580.527
			c0,0.879-0.332,1.621-0.996,2.227c-0.488,0.43-1.455,0.644-2.9,0.644c-2.148,0-3.223-0.918-3.223-2.754
			c0-1.269,0.518-2.148,1.553-2.637c0.43-0.195,1.113-0.293,2.051-0.293C668.109,577.715,669.281,578.652,669.281,580.527z
			 M669.281,615.156c0,1.191-0.459,2.031-1.377,2.519c-0.449,0.234-1.162,0.352-2.139,0.352c-0.801,0-1.426-0.078-1.875-0.234
			c-1.152-0.449-1.728-1.309-1.728-2.578c0-0.742,0.259-1.387,0.776-1.933c0.518-0.547,1.138-0.84,1.86-0.879
			C667.787,612.227,669.281,613.144,669.281,615.156z"/>
	</g>
	<path fill="none" d="M339.57,337.9c1.697-6.477,1.387-9.4,1.387-9.4c-0.593-4.978-3.954-4.527-3.954-4.527
		c-2.324,0.342-2.657,3.51-2.657,3.51c-1.766,7.307,3.046,10.305,3.046,10.305c0.455,0.279,0.831,0.482,1.228,0.678
		C338.74,338.514,339.351,338.705,339.57,337.9z"/>
	<path fill="none" d="M337.002,323.973c-2.324,0.342-2.657,3.51-2.657,3.51c-1.766,7.307,3.046,10.305,3.046,10.305
		c0.455,0.279,0.831,0.482,1.228,0.678c0.121,0.049,0.732,0.24,0.951-0.564c1.697-6.477,1.387-9.4,1.387-9.4
		C340.364,323.522,337.002,323.973,337.002,323.973z"/>
	<path fill="none" d="M337.002,323.973c-1.943,0.326-2.657,3.51-2.657,3.51c-1.766,7.307,3.046,10.305,3.046,10.305
		c0.455,0.279,0.831,0.482,1.228,0.678c0.121,0.049,0.732,0.24,0.951-0.564c1.697-6.477,1.387-9.4,1.387-9.4
		C340.364,323.522,337.002,323.973,337.002,323.973z"/>
	<path fill="none" d="M337.002,323.973c-1.943,0.326-2.657,3.51-2.657,3.51c-1.766,7.307,3.046,10.305,3.046,10.305
		c0.455,0.279,0.831,0.482,1.228,0.678c0.121,0.049,0.732,0.24,0.951-0.564c1.697-6.477,1.387-9.4,1.387-9.4
		C340.364,323.522,337.002,323.973,337.002,323.973z"/>
	<path fill="none" d="M337.002,323.973c-1.943,0.326-2.657,3.51-2.657,3.51c-1.766,7.307,3.046,10.305,3.046,10.305
		c0.455,0.279,0.831,0.482,1.228,0.678c0.121,0.049,0.732,0.24,0.951-0.564c1.697-6.477,1.387-9.4,1.387-9.4
		C340.364,323.522,337.002,323.973,337.002,323.973z"/>
	<path fill="none" d="M406.574,318.598c0.143-1.457-0.79-1.742-1.623-1.404c-0.809,0.324-1.741,1.166-1.741,1.166
		c-9.374,8.56-15.847,28.066-16.323,29.531c0,0.002-0.113,0.289,0.082,0.402c0.082,0.049,0.209,0.041,0.445-0.16
		c0,0-0.004,0.01-0.006,0.014C405.405,332.605,406.574,318.598,406.574,318.598z"/>
	<path fill="none" d="M337.002,323.973c-1.943,0.326-2.657,3.51-2.657,3.51c-1.766,7.307,3.046,10.305,3.046,10.305
		c0.455,0.279,0.831,0.482,1.228,0.678c0.121,0.049,0.732,0.24,0.951-0.564c1.697-6.477,1.387-9.4,1.387-9.4
		C340.364,323.522,337.002,323.973,337.002,323.973z"/>
	<path fill="none" d="M406.574,318.598c0.143-1.457-0.79-1.742-1.623-1.404c-0.809,0.324-1.741,1.166-1.741,1.166
		c-9.374,8.56-15.847,28.066-16.323,29.531c0,0.002-0.113,0.289,0.082,0.402c0.082,0.049,0.209,0.041,0.445-0.16
		c0,0-0.004,0.01-0.006,0.014C405.405,332.605,406.574,318.598,406.574,318.598z"/>
	<path fill="none" d="M337.002,323.973c-1.943,0.326-2.657,3.51-2.657,3.51c-1.766,7.307,3.046,10.305,3.046,10.305
		c0.455,0.279,0.831,0.482,1.228,0.678c0.121,0.049,0.732,0.24,0.951-0.564c1.697-6.477,1.387-9.4,1.387-9.4
		C340.364,323.522,337.002,323.973,337.002,323.973z"/>
	<path fill="none" d="M337.002,323.973c-1.943,0.326-2.657,3.51-2.657,3.51c-1.766,7.307,3.046,10.305,3.046,10.305
		c0.455,0.279,0.831,0.482,1.228,0.678c0.121,0.049,0.732,0.24,0.951-0.564c1.697-6.477,1.387-9.4,1.387-9.4
		C340.364,323.522,337.002,323.973,337.002,323.973z"/>
	<path fill="none" d="M406.574,318.598c0.143-1.457-0.79-1.742-1.623-1.404c-0.809,0.324-1.741,1.166-1.741,1.166
		c-9.374,8.56-15.847,28.066-16.323,29.531c0,0.002-0.113,0.289,0.082,0.402c0.082,0.049,0.209,0.041,0.445-0.16
		c0,0-0.004,0.01-0.006,0.014C405.405,332.605,406.574,318.598,406.574,318.598z"/>
	<path fill="none" d="M406.574,318.598c0.143-1.457-0.79-1.742-1.623-1.404c-0.809,0.324-1.741,1.166-1.741,1.166
		c-9.374,8.56-15.847,28.066-16.323,29.531c0,0.002-0.113,0.289,0.082,0.402c0.082,0.049,0.209,0.041,0.445-0.16
		c0,0-0.004,0.01-0.006,0.014C405.405,332.605,406.574,318.598,406.574,318.598z"/>
	<path fill="none" d="M337.002,323.973c-1.943,0.326-2.657,3.51-2.657,3.51c-1.766,7.307,3.046,10.305,3.046,10.305
		c0.455,0.279,0.831,0.482,1.228,0.678c0.121,0.049,0.732,0.24,0.951-0.564c1.697-6.477,1.387-9.4,1.387-9.4
		C340.364,323.522,337.002,323.973,337.002,323.973z"/>
	<path fill="none" d="M406.574,318.598c0.143-1.457-0.79-1.742-1.623-1.404c-0.809,0.324-1.741,1.166-1.741,1.166
		c-9.374,8.56-15.847,28.066-16.323,29.531c0,0.002-0.113,0.289,0.082,0.402c0.082,0.049,0.209,0.041,0.445-0.16
		c0,0-0.004,0.01-0.006,0.014C405.405,332.605,406.574,318.598,406.574,318.598z"/>
	<path fill="none" d="M337.002,323.973c-1.943,0.326-2.657,3.51-2.657,3.51c-1.766,7.307,3.046,10.305,3.046,10.305
		c0.455,0.279,0.831,0.482,1.228,0.678c0.121,0.049,0.732,0.24,0.951-0.564c1.697-6.477,1.387-9.4,1.387-9.4
		C340.364,323.522,337.002,323.973,337.002,323.973z"/>
	<path fill="none" d="M406.574,318.598c0.143-1.457-0.79-1.742-1.623-1.404c-0.809,0.324-1.741,1.166-1.741,1.166
		c-9.374,8.56-15.847,28.066-16.323,29.531c0,0.002-0.113,0.289,0.082,0.402c0.082,0.049,0.209,0.041,0.445-0.16
		c0,0-0.004,0.01-0.006,0.014C405.405,332.605,406.574,318.598,406.574,318.598z"/>
	<path fill="none" d="M337.002,323.973c-1.943,0.326-2.657,3.51-2.657,3.51c-1.766,7.307,3.046,10.305,3.046,10.305
		c0.455,0.279,0.831,0.482,1.228,0.678c0.121,0.049,0.732,0.24,0.951-0.564c1.697-6.477,1.387-9.4,1.387-9.4
		C340.364,323.522,337.002,323.973,337.002,323.973z"/>
	<path fill="none" d="M518.4,295.572c0.426-1.184-0.037-1.797-0.161-1.934c-1.266-1.168-2.352-1.648-3.317-2.053
		c-9.625-4.02-20.07,29.061-20.07,29.061c-2.611,7.726,2.51,8.162,2.51,8.162c4.546,0.289,11.257-7.301,12.556-9.307
		c1.301-2.008,3.258-8.215,3.258-8.215c1.5-5.035,3.282-10.326,5.234-15.719L518.4,295.572z"/>
	<path fill="none" d="M337.002,323.973c-1.943,0.326-2.657,3.51-2.657,3.51c-1.766,7.307,3.046,10.305,3.046,10.305
		c0.455,0.279,0.831,0.482,1.228,0.678c0.121,0.049,0.732,0.24,0.951-0.564c1.697-6.477,1.387-9.4,1.387-9.4
		C340.364,323.522,337.002,323.973,337.002,323.973z"/>
	<path fill="none" d="M406.574,318.598c0.143-1.457-0.79-1.742-1.623-1.404c-0.809,0.324-1.741,1.166-1.741,1.166
		c-9.374,8.56-15.847,28.066-16.323,29.531c0,0.002-0.113,0.289,0.082,0.402c0.082,0.049,0.209,0.041,0.445-0.16
		c0,0-0.004,0.01-0.006,0.014C405.405,332.605,406.574,318.598,406.574,318.598z"/>
	<path fill="none" d="M518.239,293.639c-1.266-1.168-2.352-1.648-3.317-2.053c-9.625-4.02-20.07,29.061-20.07,29.061
		c-2.452,8.41,2.51,8.162,2.51,8.162c4.546,0.289,11.257-7.301,12.556-9.307c1.301-2.008,3.258-8.215,3.258-8.215
		c1.5-5.035,3.282-10.326,5.234-15.719l-0.009,0.004C518.888,294.297,518.363,293.775,518.239,293.639z"/>
	<path fill="none" d="M406.574,318.598c0.143-1.457-0.79-1.742-1.623-1.404c-0.809,0.324-1.741,1.166-1.741,1.166
		c-9.374,8.56-15.847,28.066-16.323,29.531c0,0.002-0.113,0.289,0.082,0.402c0.082,0.049,0.209,0.041,0.445-0.16
		c0,0-0.004,0.01-0.006,0.014C405.405,332.605,406.574,318.598,406.574,318.598z"/>
	<path fill="none" d="M337.002,323.973c-1.943,0.326-2.657,3.51-2.657,3.51c-1.766,7.307,3.046,10.305,3.046,10.305
		c0.455,0.279,0.831,0.482,1.228,0.678c0.121,0.049,0.732,0.24,0.951-0.564c1.697-6.477,1.387-9.4,1.387-9.4
		C340.364,323.522,337.002,323.973,337.002,323.973z"/>
	<path fill="none" d="M518.239,293.639c-1.266-1.168-2.352-1.648-3.317-2.053c-9.625-4.02-20.07,29.061-20.07,29.061
		c-2.452,8.41,2.51,8.162,2.51,8.162c4.546,0.289,11.257-7.301,12.556-9.307c1.301-2.008,3.258-8.215,3.258-8.215
		c1.5-5.035,3.282-10.326,5.234-15.719l-0.009,0.004C518.888,294.297,518.363,293.775,518.239,293.639z"/>
	<path fill="none" d="M406.574,318.598c0.143-1.457-0.79-1.742-1.623-1.404c-0.809,0.324-1.741,1.166-1.741,1.166
		c-9.374,8.56-15.847,28.066-16.323,29.531c0,0.002-0.113,0.289,0.082,0.402c0.082,0.049,0.209,0.041,0.445-0.16
		c0,0-0.004,0.01-0.006,0.014C405.405,332.605,406.574,318.598,406.574,318.598z"/>
	<path fill="none" d="M518.239,293.639c-1.266-1.168-2.352-1.648-3.317-2.053c-9.625-4.02-20.07,29.061-20.07,29.061
		c-2.452,8.41,2.51,8.162,2.51,8.162c4.546,0.289,11.257-7.301,12.556-9.307c1.301-2.008,3.258-8.215,3.258-8.215
		c1.5-5.035,3.282-10.326,5.234-15.719l-0.009,0.004C518.888,294.297,518.363,293.775,518.239,293.639z"/>
	<path fill="none" d="M337.002,323.973c-1.943,0.326-2.657,3.51-2.657,3.51c-1.766,7.307,3.046,10.305,3.046,10.305
		c0.455,0.279,0.831,0.482,1.228,0.678c0.121,0.049,0.732,0.24,0.951-0.564c1.697-6.477,1.387-9.4,1.387-9.4
		C340.364,323.522,337.002,323.973,337.002,323.973z"/>
	<path fill="none" d="M406.574,318.598c0.143-1.457-0.79-1.742-1.623-1.404c-0.809,0.324-1.741,1.166-1.741,1.166
		c-9.374,8.56-15.847,28.066-16.323,29.531c0,0.002-0.113,0.289,0.082,0.402c0.082,0.049,0.209,0.041,0.445-0.16
		c0,0-0.004,0.01-0.006,0.014C405.405,332.605,406.574,318.598,406.574,318.598z"/>
	<path fill="none" d="M518.239,293.639c-1.266-1.168-2.352-1.648-3.317-2.053c-9.625-4.02-20.07,29.061-20.07,29.061
		c-2.452,8.41,2.51,8.162,2.51,8.162c4.546,0.289,11.257-7.301,12.556-9.307c1.301-2.008,3.258-8.215,3.258-8.215
		c1.5-5.035,3.282-10.326,5.234-15.719l-0.009,0.004C518.888,294.297,518.363,293.775,518.239,293.639z"/>
	<path fill="none" d="M337.002,323.973c-1.943,0.326-2.657,3.51-2.657,3.51c-1.766,7.307,3.046,10.305,3.046,10.305
		c0.455,0.279,0.831,0.482,1.228,0.678c0.121,0.049,0.732,0.24,0.951-0.564c1.697-6.477,1.387-9.4,1.387-9.4
		C340.364,323.522,337.002,323.973,337.002,323.973z"/>
	<path fill="none" d="M337.002,323.973c-1.943,0.326-2.657,3.51-2.657,3.51c-1.766,7.307,3.046,10.305,3.046,10.305
		c0.455,0.279,0.831,0.482,1.228,0.678c0.121,0.049,0.732,0.24,0.951-0.564c1.697-6.477,1.387-9.4,1.387-9.4
		C340.364,323.522,337.002,323.973,337.002,323.973z"/>
	<path fill="none" d="M406.574,318.598c0.143-1.457-0.79-1.742-1.623-1.404c-0.809,0.324-1.741,1.166-1.741,1.166
		c-9.374,8.56-15.847,28.066-16.323,29.531c0,0.002-0.113,0.289,0.082,0.402c0.082,0.049,0.209,0.041,0.445-0.16
		c0,0-0.004,0.01-0.006,0.014C405.405,332.605,406.574,318.598,406.574,318.598z"/>
	<path fill="none" d="M518.239,293.639c-1.266-1.168-2.352-1.648-3.317-2.053c-9.625-4.02-20.07,29.061-20.07,29.061
		c-2.452,8.41,2.51,8.162,2.51,8.162c4.546,0.289,11.257-7.301,12.556-9.307c1.301-2.008,3.258-8.215,3.258-8.215
		c1.5-5.035,3.282-10.326,5.234-15.719l-0.009,0.004C518.888,294.297,518.363,293.775,518.239,293.639z"/>
	<path fill="none" d="M560.217,284.277c-0.519-0.758-0.956,0.271-0.956,0.271h-0.002c-4.332,11.658-8.264,18.717-9.623,21.014l0,0
		c0,0-0.504,0.91-0.182,1.641c2.977,6.537,11.828,4.537,11.828,4.537c9.329-2.719,7.401-12.023,7.401-12.023
		C567.622,295.572,563.26,288.723,560.217,284.277z"/>
	<path fill="none" d="M518.239,293.639c-1.266-1.168-2.352-1.648-3.317-2.053c-9.625-4.02-20.07,29.061-20.07,29.061
		c-2.452,8.41,2.51,8.162,2.51,8.162c4.546,0.289,11.257-7.301,12.556-9.307c1.301-2.008,3.258-8.215,3.258-8.215
		c1.5-5.035,3.282-10.326,5.234-15.719l-0.009,0.004C518.888,294.297,518.363,293.775,518.239,293.639z"/>
	<path fill="none" d="M406.574,318.598c0.143-1.457-0.79-1.742-1.623-1.404c-0.809,0.324-1.741,1.166-1.741,1.166
		c-9.374,8.56-15.847,28.066-16.323,29.531c0,0.002-0.113,0.289,0.082,0.402c0.082,0.049,0.209,0.041,0.445-0.16
		c0,0-0.004,0.01-0.006,0.014C405.405,332.605,406.574,318.598,406.574,318.598z"/>
	<path fill="none" d="M337.002,323.973c-1.943,0.326-2.657,3.51-2.657,3.51c-1.766,7.307,3.046,10.305,3.046,10.305
		c0.455,0.279,0.831,0.482,1.228,0.678c0.121,0.049,0.732,0.24,0.951-0.564c1.697-6.477,1.387-9.4,1.387-9.4
		C340.364,323.522,337.002,323.973,337.002,323.973z"/>
	<path fill="none" d="M560.217,284.277c-0.519-0.758-0.956,0.271-0.956,0.271h-0.002c-4.332,11.658-8.264,18.717-9.623,21.014l0,0
		c0,0-0.504,0.91-0.182,1.641c2.977,6.537,11.828,4.537,11.828,4.537c9.329-2.719,7.401-12.023,7.401-12.023
		C567.622,295.572,563.26,288.723,560.217,284.277z"/>
	<path fill="none" d="M406.574,318.598c0.143-1.457-0.79-1.742-1.623-1.404c-0.809,0.324-1.741,1.166-1.741,1.166
		c-9.374,8.56-15.847,28.066-16.323,29.531c0,0.002-0.113,0.289,0.082,0.402c0.082,0.049,0.209,0.041,0.445-0.16
		c0,0-0.004,0.01-0.006,0.014C405.405,332.605,406.574,318.598,406.574,318.598z"/>
	<path fill="none" d="M518.239,293.639c-1.266-1.168-2.352-1.648-3.317-2.053c-9.625-4.02-20.07,29.061-20.07,29.061
		c-2.452,8.41,2.51,8.162,2.51,8.162c4.546,0.289,11.257-7.301,12.556-9.307c1.301-2.008,3.258-8.215,3.258-8.215
		c1.5-5.035,3.282-10.326,5.234-15.719l-0.009,0.004C518.888,294.297,518.363,293.775,518.239,293.639z"/>
	<path fill="none" d="M337.002,323.973c-1.943,0.326-2.657,3.51-2.657,3.51c-1.766,7.307,3.046,10.305,3.046,10.305
		c0.455,0.279,0.831,0.482,1.228,0.678c0.121,0.049,0.732,0.24,0.951-0.564c1.697-6.477,1.387-9.4,1.387-9.4
		C340.364,323.522,337.002,323.973,337.002,323.973z"/>
	<path fill="none" d="M560.217,284.277c-0.519-0.758-0.956,0.271-0.956,0.271h-0.002c-4.332,11.658-8.264,18.717-9.623,21.014l0,0
		c0,0-0.504,0.91-0.182,1.641c2.977,6.537,11.828,4.537,11.828,4.537c9.329-2.719,7.401-12.023,7.401-12.023
		C567.622,295.572,563.26,288.723,560.217,284.277z"/>
	<g>
		<path fill="#FFFFFF" d="M518.239,293.639c-1.266-1.168-2.352-1.648-3.317-2.053c-9.625-4.02-20.07,29.061-20.07,29.061
			c-2.452,8.41,2.51,8.162,2.51,8.162c4.546,0.289,11.257-7.301,12.556-9.307c1.301-2.008,3.258-8.215,3.258-8.215
			c1.5-5.035,3.282-10.326,5.234-15.719l-0.009,0.004C518.888,294.297,518.363,293.775,518.239,293.639z"/>
		<path fill="#FFFFFF" d="M406.574,318.598c0.143-1.457-0.79-1.742-1.623-1.404c-0.809,0.324-1.741,1.166-1.741,1.166
			c-9.374,8.56-15.847,28.066-16.323,29.531c0,0.002-0.113,0.289,0.082,0.402c0.082,0.049,0.209,0.041,0.445-0.16
			c0,0-0.004,0.01-0.006,0.014C405.405,332.605,406.574,318.598,406.574,318.598z"/>
		<path fill="#FFFFFF" d="M337.002,323.973c-1.943,0.326-2.657,3.51-2.657,3.51c-1.766,7.307,3.046,10.305,3.046,10.305
			c0.455,0.279,0.831,0.482,1.228,0.678c0.121,0.049,0.732,0.24,0.951-0.564c1.697-6.477,1.387-9.4,1.387-9.4
			C340.364,323.522,337.002,323.973,337.002,323.973z"/>
		<path fill="#FFFFFF" d="M560.217,284.277c-0.519-0.758-0.956,0.271-0.956,0.271h-0.002c-4.332,11.658-8.264,18.717-9.623,21.014
			c0,0-0.504,0.91-0.182,1.641c2.977,6.537,11.828,4.537,11.828,4.537c9.329-2.719,7.401-12.023,7.401-12.023
			C567.622,295.572,563.26,288.723,560.217,284.277z"/>
		<path fill="#FFFFFF" d="M600.352,304.461c-0.552,0-0.939,0.056-1.161,0.11v2.6h0.996c1.16,0,2.102-0.387,2.102-1.328
			C602.288,305.015,601.679,304.461,600.352,304.461z"/>
		<path fill="#FFFFFF" d="M600.573,300.315h-0.055c-3.927,0-6.968,3.262-6.968,7.243c0,4.037,3.041,7.243,7.078,7.243
			c3.925,0.055,6.911-3.206,6.911-7.189C607.54,303.576,604.554,300.315,600.573,300.315z M602.729,312.258
			c-0.276-0.332-0.441-1.106-0.719-2.212c-0.166-0.94-0.719-1.383-1.88-1.383h-0.995v3.595h-2.101v-9.068
			c0.829-0.111,1.989-0.276,3.483-0.276c1.714,0,2.487,0.276,3.096,0.719c0.553,0.387,0.939,1.051,0.939,1.935
			c0,1.107-0.829,1.825-1.879,2.157v0.111c0.885,0.276,1.327,0.995,1.603,2.211c0.275,1.382,0.497,1.88,0.663,2.212H602.729z"/>
		<path fill="#FFFFFF" d="M699.648,436.586V142.855c0-17.028-15.48-22.446-15.48-22.446l-268.48-64.954
			c-20.415-4.257-37.635,0-37.635,0l-264.714,65.152l-5.346,1.294c0,0-14.56,5.097-15.438,20.938
			c-0.176,1.799-0.106,2.945-0.106,2.945l-0.1,286.544c0,22.447,17.901,25.543,17.901,25.543l268.189,63.018
			c17.802,3.484,37.248,0,37.248,0l265.771-63.018C700.035,454.389,699.648,436.586,699.648,436.586z M489.894,97.107
			c0.004,0.046,0.008,0.092,0.012,0.138c-0.005-0.048-0.008-0.088-0.013-0.138H489.894z M479.88,200.724L479.88,200.724l8.047-53.12
			c0.005-0.03,0.35-2.056,2.113-2.056h20.885c1.8,0,2.144,2.039,2.144,2.039l8.236,48.43c0.362,2.142-1.763,2.38-1.763,2.38v0.004
			c-4.365,0.415-8.677,0.842-12.932,1.281v-0.003c-1.706,0.175-2.086-1.589-2.086-1.589v0l-0.676-4.449
			c-0.958-6.175-1.916-14.634-2.779-24.359l-0.001,0.001c-0.141-1.565-0.441-1.584-0.462-1.584c-0.292,0-0.407,0.79-0.45,1.253
			c-0.878,11.93-1.382,16.401-2.388,24.689l-0.696,5.158c-0.253,1.86-2,2.117-2,2.117l0.003,0.004
			c-4.574,0.508-9.081,1.03-13.523,1.565v-0.004C479.612,202.713,479.88,200.724,479.88,200.724z M450.444,147.476
			c0.054-0.438,0.355-1.914,2.021-1.914l-0.006-0.014h14.865l-0.006,0.014c1.685,0,1.975,1.516,2.023,1.933v53.913
			c0,2.643-1.998,2.857-1.998,2.857v0.005c-5.152,0.675-10.22,1.365-15.189,2.073l-0.002-0.005c-1.664,0.236-1.708-1.638-1.708-1.638
			V147.476z M387.836,147.591c0,0,0.057-1.969,2.088-2.043h22.396c15.281,0,21.525,1.551,25.635,6.723
			c4.436,5.344,5.586,12.066,5.586,33.097v20.446c0,1.754-1.718,2.035-1.718,2.035l0.003,0.005
			c-5.214,0.785-10.334,1.585-15.339,2.403l-0.001-0.002c-1.715,0.279-1.842-1.876-1.842-1.876V178.99
			c0-15.17-2.301-18.271-13.31-18.271h-2.888c-1.719,0-1.714,1.956-1.714,1.956v48.87c0,2.173-1.964,2.471-1.964,2.471l-0.002,0.003
			c-5.112,0.937-10.102,1.888-14.973,2.852v-0.003c-1.858,0.365-1.959-1.996-1.959-1.996V147.591z M330.817,147.591
			c0,0,0.012-1.961,2.022-2.043h46.54c0,0,2.213,0.046,2.213,2.043v14.415c0,1.987-2.213,1.986-2.213,1.986h-27.714
			c-1.984,0-1.951,2.057-1.951,2.057v25.25c0,0-0.002,1.825,1.857,1.825h25.875c0,0,2.339,0.066,2.339,2.24v12.273
			c0,2.195-2.339,2.207-2.339,2.207h-25.875c-1.844,0-1.857,1.751-1.857,1.751v11.936c0,2.104-1.953,2.618-1.953,2.618l0.003,0.002
			c-5.188,1.275-10.198,2.558-15.037,3.844l0-0.003c-1.873,0.495-1.91-1.699-1.91-1.699V147.591z M244.875,147.591
			c0,0,0.081-2.042,2.034-2.042l-0.001-0.001h25.314c0,0,1.738,0.002,2.063,2.041l5.755,36.227
			c1.223,7.375,2.161,14.905,3.212,25.771v0.003c0.039,0.404,0.079,0.82,0.119,1.233c0.067,0.422,0.162,0.611,0.277-0.189
			c0.037-0.343,0.076-0.703,0.112-1.034c0.001-0.005,0.001-0.008,0.001-0.013c1.275-11.713,1.807-16.25,3.344-25.771l5.756-36.227
			c0.003-0.016,0.344-2.041,2.152-2.041h25.561c0,0,2.025,0.034,2.025,2.043v82.912c0,2.366-2.206,2.878-2.206,2.878l0.003,0.002
			c-4.626,1.314-9.079,2.628-13.361,3.936l0.001-0.004c-2.467,0.749-2.514-2.211-2.514-2.211V200.71
			c0-5.153,0.218-15.088,0.509-23.609c-0.02-0.004-0.046-0.009-0.046-0.009s0.151-2.164-0.396-2.2c0,0-0.699-0.181-0.91,2.041
			l-0.02-0.029c-1.564,9.194-2.689,15.857-3.902,22.6l-6.994,39.963c-0.446,2.545-2.582,3.254-2.582,3.254l-0.002,0.004
			c-3.991,1.344-7.805,2.675-11.439,3.986l0-0.002c-2.527,0.904-3.258-2.052-3.264-2.076l-8.091-46.68
			c-0.656-4.483-1.479-8.964-2.3-13.445l-1.315-7.93c-0.042-0.231-0.077-0.453-0.118-0.683c-0.287-1.098-0.733-1.003-0.733-1.003
			c-0.447,0.03-0.427,1.464-0.405,1.993l0.008,0.184c0,0.004,0.001,0.023,0.001,0.023l0.096,2.072
			c0.164,3.792,0.329,12.756,0.329,18.789v51.384c0,3.359-2.702,4.465-2.702,4.465l0.004,0.006
			c-4.622,1.887-8.861,3.707-12.694,5.432l-0.001-0.002c-2.613,1.164-2.684-2.291-2.684-2.291V147.591z M280.432,458.357
			c0.041,5.443-2.996,5.434-2.996,5.434c-13.543,0.279-21.568-7.639-21.568-7.639c-5.236-4.523-3.887-13.58-3.887-13.58
			c4.64-32.084,21.568-71.295,21.568-71.295c17.959-44.662,46.955-89.518,55.317-102.068c0.279-0.418,0.548-0.82,0.283-1.201
			c-0.182-0.26-0.508-0.213-0.701-0.154c-78.938,30.418-102.685,56.887-102.685,56.887c-3.952,3.662-6.322,1.143-7.48-2.232
			c-0.847-2.471-0.836-5.471-0.836-5.471c-0.034-15.051,5.16-24.186,8.109-29.74c2.951-5.555,9.802-9.855,9.802-9.855
			c95.127-51.778,280.595-70.535,280.595-70.535c7.267-0.749,9.17,0.544,9.17,0.544c2.965,1.852,4.8,4.167,4.8,4.167
			c1.757,2.674-2.898,3.446-2.898,3.446c-86.469,14.304-154.134,35.567-174.568,43.979c-1.27,0.523-2.196,1.633-2.426,1.961
			C321.12,305.865,294.1,381.801,294.1,381.801C279.836,423.219,280.432,458.357,280.432,458.357z M581.667,312.01
			c-4.041,11.34-19.979,14.213-19.979,14.213c-12.457,2.281-17.848-5.396-19.165-7.703c-0.304-0.635-0.886,0-0.886,0l-0.002-0.002
			c-8.239,9.574-12.971,14.283-12.971,14.283c-6.071,5.615-11.24,5.875-11.24,5.875c-3.959,0.244-5.82-2.957-6.481-4.631
			l-0.002,0.004c-0.376-1.178-1.419,0-1.419,0l-0.001-0.004c-13.015,13.412-21.681,13.238-21.681,13.238
			c-4.042-0.154-5.89-2.967-6.958-6.604l-0.004,0.002c-0.335-0.994-0.911-0.391-1.147-0.078c-0.031,0.045-0.062,0.09-0.094,0.135
			c-0.008,0.012-0.015,0.02-0.015,0.02c-4.298,6.074-8.856,10.471-8.856,10.471c-6.469,6.006-12.24,4.627-12.24,4.627
			c-4.5-0.703-5.933-3.408-6.251-3.904c-5.177-8.012,12.314-43.173,12.314-43.173c1.445-3.036,0.819-3.942,0.819-3.942
			c-2.769-1.381-12.272,6.629-12.272,6.629c-6.084,5.348-9.272,10.355-12.224,18.09c-0.569,1.492-0.772,2.445-0.772,2.445
			c-3.506,15.082-6.753,27.033-6.753,27.033c-1.252,4.578-4.764,6.969-4.764,6.969c-8.72,6.172-13.844,5.156-13.844,5.156
			c-2.635-0.547-0.48-5.25-0.48-5.25c3.19-7.615,5.839-15.488,8.218-22.824c1.007-3.106-0.784-0.098-0.784-0.098v-0.006
			c-12.511,20.732-28.194,35.392-28.194,35.392c-6.475,5.85-14.93,3.119-15.402,2.967c-3.008-0.785-5.085-3.658-6.055-6.422
			l-0.002,0.002c-0.287-0.768-0.943,0.066-0.943,0.066c-7.551,9.691-15.719,17.072-15.719,17.072
			c-4.72,4.303-9.492,4.406-9.492,4.406c-6.006,0.113-5.673-8.779-5.673-8.779c0.924-15.504,13.462-34.629,13.462-34.629
			c0.611-0.906-0.134-1.811-0.134-1.811c-0.367-0.477-1.184-0.34-1.184-0.34c-2.825,0.619-5.315,0.904-7.461,0.992h0.005
			c-1.043,0.059-1.517,1.258-1.517,1.258h-0.002c-15.133,39.549-29.768,50.6-29.768,50.6c-4.529,3.746-7.935,3.281-7.935,3.281
			c-10.89-1.131-9.713-11.656-9.713-11.656c0.029-2.516,2.727-3.281,2.727-3.281c21.54-7.922,34.345-36.893,34.345-36.893
			c0.463-0.994,0.889-1.943,1.297-2.875c0.745-1.775-0.409-2.408-0.409-2.408l0.01-0.01c-16.121-9.453-6.94-29.111-6.94-29.111
			c3.215-6.676,9.186-7.809,9.186-7.809c4.52-1.244,7.934,0.568,7.934,0.568c9.692,4.072,4.417,25.01,4.417,25.01
			c-0.107,0.531-0.153,0.764-0.203,0.969c-0.052,0.406,0.028,0.764,0.559,0.748c6.63-0.596,11.605-4.094,11.605-4.094
			c2.222-1.475,3.218-0.33,4.048,0.791c0.832,1.123,2.524,6.227,2.903,7.922c0.38,1.697-0.791,3.848-0.791,3.848
			c-6.209,10.186-12.346,22.521-12.346,22.521c-0.544,1.191-0.923,2.209-1.201,3.111c-0.234,0.895-1,4.352,1.147,4.75
			c0,0,1.765,0.316,4.647-2.096c0,0,6.815-5.869,10.743-10.33c0,0,0.874-0.852,0.936-2.543l0.002,0.002
			c0.263-13.107,6.115-26.828,6.115-26.828c11.546-24.941,25.32-28.277,25.32-28.277c5.966-2.303,10.326,0,10.326,0
			c3.367,1.518,3.449,5.402,3.449,5.402c-0.082,12.629-8.536,24.978-8.536,24.978c-7.21,11.043-15.343,17.602-19.099,20.699
			c0,0-0.603,0.541-0.365,1.209c0.935,2.703,1.945,3.391,1.945,3.391c2.682,1.904,8.273-4.131,8.273-4.131
			c16.109-16.434,29.406-41.947,33.908-51.299c1.13-2.346,1.323-3.27,1.332-3.301c0.492-1.853,0.84-5.301,0.84-5.301
			c0.212-3.424,10.015-6.617,10.015-6.617c5.106-1.355,3.358,6.91,3.358,6.91c-0.466,2.199-0.423,1.785-1.093,4.625l-0.263,1.107
			c0,0-0.388,1.629,0.264,0.602c5.378-7.521,12.645-13.332,12.645-13.332c9.42-6.992,15.311-3.154,15.311-3.154
			c7.045,3.68,0.089,19.605,0.089,19.605c-5.021,12.262-7.07,19.273-7.07,19.273c-2.726,8.627,0.678,8.916,0.678,8.916
			c3.114,0.557,8.743-6.143,11.3-9.492c0.747-0.961,0.86-2.334,0.86-2.334h0.002c0.542-5.422,1.598-9.797,1.598-9.797
			c8.837-31.941,28.342-38.066,28.342-38.066c5.589-1.895,10.363,0.252,12.69,2.279l0.001-0.004c0,0,0.758,0.658,1.213-0.471h0.001
			c13.404-33.322,30.404-65.922,30.404-65.922c2.581-4.921,6.07-6.649,6.07-6.649c12.642-6.85,19.263-2.263,19.263-2.263
			c2.818,1.464-3.749,8.993-3.749,8.993c-25.931,28.612-52.069,100.891-52.069,100.891c-1.747,5.088,0.613,5.535,0.613,5.535
			c2.86,0.867,9.709-7.479,9.709-7.479c7.6-8.742,16.899-31.047,19.597-38.603c0.359-1.012,0.018-1.982,0.018-1.982l0.01-0.002
			c-2.292-7.23-0.365-12.691-0.365-12.691c3.846-11.621,13.131-9.723,13.131-9.723c8.826,1.627,3.309,20.551,3.309,20.551
			c-0.734,2.404-0.188,3.816-0.188,3.816c2.771,7.113,10.513,23.375,10.513,23.375C583.621,305.826,581.667,312.01,581.667,312.01z
			 M600.573,316.681c-5.197,0-9.345-4.035-9.345-9.123c0-5.087,4.148-9.067,9.345-9.067h0.056c5.142,0,9.234,3.98,9.234,9.067
			C609.863,312.646,605.771,316.681,600.573,316.681z"/>
	</g>
</g>		
</svg>